<svg width="283" height="23" viewBox="0 0 283 23" fill="none" xmlns="http://www.w3.org/2000/svg">
<g clip-path="url(#clip0_1934_653)">
<path d="M0 0.389648H0.555324H14.6151L13.271 4.55922H9.47838L9.48469 19.093V19.9608H4.75181C4.75181 19.9608 4.75181 19.8225 4.75181 19.659V4.55293H0.555324L0.0063105 4.56551L0 0.389648Z" fill="white"/>
<path d="M38.9607 0.389648H39.516H53.9166L52.5724 4.55922H48.4454L48.4517 19.093V19.9734H43.7188C43.7188 19.9734 43.7188 19.8288 43.7188 19.6653V4.55922H39.516L38.9607 4.56551V0.389648Z" fill="white"/>
<path d="M15.5112 7.03562V6.61426H20.1936L20.1999 7.03562L20.2062 18.7331L20.1873 19.9594H15.5365V19.2928L15.5112 7.03562Z" fill="white"/>
<path d="M22.4529 1.25748V0.333008H23.3868H26.3023H27.0848V1.1317L27.0911 9.45197L31.7735 4.91136H37.3583L31.4895 10.5903L38.0651 19.9608H32.9031L28.5173 13.4643L27.129 14.8039V19.9671L22.4718 19.9608V19.5457L22.4529 1.25748Z" fill="white"/>
<path d="M70.5454 1.25748V0.333008H71.4794H74.3948H75.1773V1.1317L75.1836 9.45197L79.866 4.91136H85.4508L79.5821 10.5903L86.1576 19.9608H81.0019L76.6161 13.4643L75.2215 14.8039L75.2278 19.9671L70.5643 19.9608V19.5457L70.5454 1.25748Z" fill="white"/>
<path d="M67.8949 8.82307C67.4721 7.85458 66.9041 7.01186 66.1847 6.29492C65.4653 5.57798 64.6197 5.01826 63.6416 4.60948C63.5532 4.57175 63.4649 4.53401 63.3702 4.50257C63.3387 4.48999 63.3008 4.47741 63.2693 4.46483C63.2125 4.44597 63.1557 4.4271 63.0989 4.40823C63.0547 4.39566 63.0105 4.37679 62.9727 4.36421C62.9285 4.35163 62.8843 4.33906 62.8402 4.32648C62.7897 4.3139 62.7392 4.29503 62.6824 4.28246C62.6635 4.27617 62.6445 4.26988 62.6256 4.26988C62.3984 4.21328 62.1712 4.16297 61.9378 4.11894C61.9314 4.11894 61.9251 4.11894 61.9125 4.11265C61.8305 4.10008 61.7484 4.0875 61.6664 4.07492C61.4897 4.04976 61.313 4.0309 61.13 4.01832C60.9975 4.00574 60.8587 4.00574 60.7261 3.99945C60.6567 3.99945 60.5873 3.99316 60.5179 3.99316C60.4548 3.99316 60.3917 3.99316 60.3286 3.99945C60.1834 4.00574 60.032 4.00574 59.8868 4.01832C59.5713 4.04348 59.2684 4.08121 58.9655 4.13781C58.915 4.15039 58.8645 4.15668 58.8141 4.16925C58.7699 4.18183 58.7194 4.18812 58.6752 4.2007C58.5679 4.22585 58.467 4.25101 58.3597 4.27617C57.6719 4.46483 57.0282 4.72268 56.435 5.06857C55.8418 5.40818 55.2991 5.81696 54.8195 6.30121C54.3336 6.78546 53.9234 7.32002 53.5763 7.90489C53.2293 8.48976 52.9642 9.13123 52.7686 9.81673C52.5793 10.5022 52.4846 11.2192 52.4846 11.9675C52.4846 12.7096 52.5793 13.4266 52.7749 14.1121C52.9642 14.7976 53.2356 15.4328 53.5827 16.0239C53.9297 16.6151 54.3462 17.1496 54.8258 17.6339C55.3117 18.1181 55.8481 18.5269 56.4413 18.8728C57.0345 19.2187 57.6782 19.4828 58.366 19.6652C58.4796 19.6967 58.5869 19.7218 58.7005 19.747C58.7383 19.7533 58.7762 19.7658 58.8141 19.7721C58.8898 19.791 58.9655 19.8036 59.0412 19.8161C59.0854 19.8224 59.1296 19.835 59.1801 19.8413C59.2558 19.8539 59.3315 19.8665 59.4136 19.8727C59.4514 19.879 59.4893 19.8853 59.5335 19.8916C59.6533 19.9042 59.7796 19.9168 59.9058 19.9293C60.0635 19.9419 60.2213 19.9482 60.3791 19.9482C60.4295 19.9482 60.48 19.9482 60.5305 19.9482C60.581 19.9482 60.6315 19.9482 60.6757 19.9482C60.8334 19.9419 60.9912 19.9419 61.1489 19.9293C61.2941 19.9168 61.4455 19.9042 61.5907 19.8853C61.6853 19.8727 61.7737 19.8602 61.8683 19.8476C61.9188 19.8413 61.9693 19.8287 62.0198 19.8224C62.0829 19.8099 62.1523 19.7973 62.2154 19.7847C62.2533 19.7784 62.2975 19.7658 62.3353 19.7595C62.4426 19.7344 62.5499 19.7092 62.6572 19.6778C63.3387 19.4891 63.976 19.225 64.5692 18.8854C65.1624 18.5395 65.7051 18.1307 66.1847 17.6465C66.6706 17.1622 67.0808 16.6277 67.4279 16.0365C67.775 15.4453 68.04 14.8101 68.2356 14.1247C68.4313 13.4392 68.5196 12.7285 68.5196 11.9801C68.5259 10.8355 68.3177 9.79157 67.8949 8.82307ZM64.2663 13.0052C64.1717 13.3385 64.0455 13.6467 63.8751 13.936C63.7047 14.2253 63.5028 14.4831 63.2693 14.7158C63.0358 14.9485 62.7707 15.1498 62.4868 15.3196C62.1965 15.4894 61.8873 15.6151 61.5591 15.7032C61.2752 15.7786 60.9786 15.8227 60.6757 15.8352C60.6946 15.8352 60.7072 15.8352 60.7261 15.8352C60.6946 15.8352 60.663 15.8415 60.6252 15.8415C60.6062 15.8415 60.5873 15.8415 60.5747 15.8415C60.5621 15.8415 60.5431 15.8415 60.5305 15.8415C60.3096 15.8415 60.1014 15.8227 59.8932 15.7912C59.7543 15.7724 59.6218 15.7409 59.4893 15.7095C59.1548 15.6214 58.8456 15.4894 58.5553 15.3258C58.265 15.156 58.0063 14.9611 57.7665 14.7221C57.533 14.4894 57.3311 14.2253 57.1607 13.9423C56.9903 13.653 56.8641 13.3448 56.7695 13.0115C56.6748 12.6782 56.6306 12.3323 56.6306 11.9675C56.6306 11.6028 56.6748 11.2569 56.7695 10.9236C56.8641 10.5903 56.9903 10.2821 57.1607 9.99282C57.3311 9.70981 57.533 9.44568 57.7665 9.21299C58 8.9803 58.265 8.77905 58.549 8.61554C58.8393 8.45203 59.1485 8.31996 59.483 8.23191C59.6218 8.19418 59.7606 8.16902 59.8995 8.14387C60.1014 8.11242 60.3096 8.09356 60.5242 8.09356C60.5431 8.09356 60.5621 8.09356 60.581 8.09356C60.5936 8.09356 60.6125 8.09356 60.6252 8.09356C60.663 8.09356 60.7009 8.09356 60.7388 8.09356C60.7261 8.09356 60.7135 8.09356 60.7009 8.09356C61.1742 8.11242 61.6222 8.21305 62.045 8.38914C62.5183 8.59038 62.9285 8.86081 63.2819 9.2067C63.629 9.55259 63.9066 9.96137 64.1149 10.433C64.3168 10.9047 64.4178 11.4141 64.4241 11.9613C64.4052 12.326 64.361 12.6782 64.2663 13.0052Z" fill="white"/>
<path d="M20.2125 2.73542C20.2125 4.03095 19.1587 5.0812 17.8587 5.0812C16.5587 5.0812 15.5049 4.03095 15.5049 2.73542C15.5049 1.4399 16.5587 0.389648 17.8587 0.389648C19.1587 0.389648 20.2125 1.4399 20.2125 2.73542Z" fill="white"/>
<path d="M92.2219 9.64031C92.2219 10.7283 91.3384 11.6088 90.2467 11.6088C89.1549 11.6088 88.2715 10.7283 88.2715 9.64031C88.2715 8.55233 89.1549 7.67188 90.2467 7.67188C91.3384 7.67188 92.2219 8.55233 92.2219 9.64031Z" fill="#FE2C55"/>
<path d="M92.2219 15.6843C92.2219 16.7722 91.3384 17.6527 90.2467 17.6527C89.1549 17.6527 88.2715 16.7722 88.2715 15.6843C88.2715 14.5963 89.1549 13.7158 90.2467 13.7158C91.3384 13.7158 92.2219 14.5963 92.2219 15.6843Z" fill="#25F4EE"/>
<path d="M108.373 9.3739H106.597C106.492 8.86312 106.309 8.41441 106.046 8.02775C105.788 7.64109 105.473 7.31649 105.101 7.05394C104.733 6.78662 104.325 6.58613 103.876 6.45247C103.428 6.31881 102.96 6.25198 102.473 6.25198C101.585 6.25198 100.781 6.47634 100.06 6.92505C99.3439 7.37377 98.7734 8.03491 98.3486 8.90847C97.9285 9.78204 97.7185 10.8537 97.7185 12.1235C97.7185 13.3932 97.9285 14.4649 98.3486 15.3385C98.7734 16.212 99.3439 16.8732 100.06 17.3219C100.781 17.7706 101.585 17.995 102.473 17.995C102.96 17.995 103.428 17.9281 103.876 17.7945C104.325 17.6608 104.733 17.4627 105.101 17.2002C105.473 16.9328 105.788 16.6058 106.046 16.2192C106.309 15.8278 106.492 15.379 106.597 14.873H108.373C108.239 15.6225 107.996 16.2932 107.643 16.8851C107.289 17.477 106.85 17.9806 106.325 18.3959C105.8 18.8065 105.211 19.1191 104.557 19.3339C103.907 19.5488 103.213 19.6562 102.473 19.6562C101.222 19.6562 100.11 19.3507 99.1362 18.7396C98.1624 18.1286 97.3963 17.2598 96.8378 16.1333C96.2793 15.0067 96 13.6701 96 12.1235C96 10.5768 96.2793 9.24024 96.8378 8.11367C97.3963 6.98711 98.1624 6.11832 99.1362 5.50731C100.11 4.89629 101.222 4.59078 102.473 4.59078C103.213 4.59078 103.907 4.69819 104.557 4.913C105.211 5.12781 105.8 5.44286 106.325 5.85816C106.85 6.26869 107.289 6.76991 107.643 7.36184C107.996 7.94898 108.239 8.61967 108.373 9.3739Z" fill="white"/>
<path d="M115.625 19.6848C114.565 19.6848 113.651 19.4509 112.882 18.9831C112.119 18.5105 111.529 17.8518 111.114 17.0068C110.703 16.1571 110.498 15.169 110.498 14.0424C110.498 12.9159 110.703 11.923 111.114 11.0637C111.529 10.1997 112.107 9.52665 112.847 9.04452C113.591 8.55761 114.46 8.31416 115.453 8.31416C116.026 8.31416 116.591 8.40963 117.15 8.60058C117.708 8.79152 118.217 9.1018 118.675 9.53142C119.133 9.95627 119.498 10.5196 119.771 11.2213C120.043 11.923 120.179 12.787 120.179 13.8133V14.5293H111.701V13.0686H118.46C118.46 12.4481 118.336 11.8943 118.088 11.4074C117.844 10.9205 117.496 10.5363 117.042 10.2546C116.594 9.97298 116.064 9.83216 115.453 9.83216C114.78 9.83216 114.197 9.99923 113.706 10.3334C113.219 10.6628 112.844 11.0924 112.582 11.6222C112.319 12.1521 112.188 12.7202 112.188 13.3264V14.3002C112.188 15.1308 112.331 15.8349 112.617 16.4125C112.909 16.9853 113.312 17.4221 113.827 17.7229C114.343 18.0188 114.942 18.1668 115.625 18.1668C116.069 18.1668 116.47 18.1048 116.828 17.9806C117.19 17.8518 117.503 17.6608 117.766 17.4078C118.028 17.15 118.231 16.8302 118.374 16.4483L120.007 16.9066C119.835 17.4603 119.546 17.9472 119.14 18.3673C118.735 18.7826 118.233 19.1072 117.637 19.3411C117.04 19.5702 116.369 19.6848 115.625 19.6848Z" fill="white"/>
<path d="M124.439 12.8395V19.4557H122.749V8.45737H124.382V10.1759H124.525C124.783 9.61735 125.174 9.16863 125.699 8.82971C126.224 8.48601 126.902 8.31416 127.733 8.31416C128.478 8.31416 129.129 8.46692 129.688 8.77243C130.246 9.07316 130.681 9.53142 130.991 10.1472C131.301 10.7582 131.456 11.5315 131.456 12.4672V19.4557H129.766V12.5817C129.766 11.7177 129.542 11.0446 129.093 10.5625C128.645 10.0756 128.029 9.83216 127.246 9.83216C126.707 9.83216 126.224 9.94911 125.8 10.183C125.38 10.4169 125.048 10.7582 124.804 11.2069C124.561 11.6557 124.439 12.1998 124.439 12.8395Z" fill="white"/>
<path d="M139.327 8.45737V9.88944H133.628V8.45737H139.327ZM135.289 5.82236H136.979V16.3051C136.979 16.7825 137.048 17.1405 137.186 17.3792C137.33 17.6131 137.511 17.7706 137.731 17.8518C137.955 17.9281 138.191 17.9663 138.439 17.9663C138.626 17.9663 138.778 17.9568 138.898 17.9377C139.017 17.9138 139.112 17.8947 139.184 17.8804L139.528 19.3984C139.413 19.4413 139.253 19.4843 139.048 19.5273C138.843 19.575 138.583 19.5989 138.268 19.5989C137.79 19.5989 137.322 19.4962 136.864 19.291C136.411 19.0857 136.034 18.773 135.733 18.353C135.437 17.9329 135.289 17.403 135.289 16.7634V5.82236Z" fill="white"/>
<path d="M141.869 19.4557V8.45737H143.502V10.1186H143.616C143.817 9.57438 144.18 9.13283 144.705 8.79391C145.23 8.45498 145.822 8.28552 146.48 8.28552C146.605 8.28552 146.76 8.28791 146.946 8.29268C147.132 8.29746 147.273 8.30462 147.368 8.31416V10.0326C147.311 10.0183 147.18 9.99685 146.975 9.9682C146.774 9.93479 146.562 9.91808 146.337 9.91808C145.803 9.91808 145.325 10.0303 144.905 10.2546C144.49 10.4742 144.161 10.7797 143.917 11.1711C143.678 11.5578 143.559 11.9994 143.559 12.4958V19.4557H141.869Z" fill="white"/>
<path d="M152.608 19.7134C151.911 19.7134 151.279 19.5822 150.71 19.3196C150.142 19.0523 149.691 18.668 149.357 18.1668C149.023 17.6608 148.856 17.0498 148.856 16.3338C148.856 15.7036 148.98 15.1929 149.228 14.8014C149.476 14.4052 149.808 14.095 150.224 13.8706C150.639 13.6462 151.097 13.4792 151.598 13.3694C152.104 13.2548 152.613 13.1641 153.123 13.0973C153.792 13.0114 154.334 12.9469 154.749 12.9039C155.169 12.8562 155.474 12.7774 155.665 12.6677C155.861 12.5579 155.959 12.3669 155.959 12.0948V12.0375C155.959 11.3311 155.766 10.7821 155.379 10.3907C154.997 9.99923 154.417 9.80352 153.639 9.80352C152.832 9.80352 152.2 9.98014 151.742 10.3334C151.283 10.6866 150.961 11.0637 150.775 11.4647L149.171 10.8919C149.457 10.2236 149.839 9.70327 150.317 9.33093C150.799 8.95382 151.324 8.69127 151.892 8.54329C152.465 8.39054 153.028 8.31416 153.582 8.31416C153.935 8.31416 154.341 8.35713 154.799 8.44305C155.262 8.5242 155.708 8.69366 156.138 8.95143C156.572 9.20921 156.933 9.59825 157.219 10.1186C157.506 10.6389 157.649 11.3358 157.649 12.2094V19.4557H155.959V17.9663H155.873C155.759 18.205 155.568 18.4604 155.3 18.7325C155.033 19.0046 154.677 19.2361 154.233 19.427C153.789 19.618 153.248 19.7134 152.608 19.7134ZM152.866 18.1954C153.534 18.1954 154.097 18.0642 154.556 17.8016C155.019 17.5391 155.367 17.2002 155.601 16.7849C155.84 16.3696 155.959 15.9328 155.959 15.4745V13.9279C155.887 14.0138 155.73 14.0926 155.486 14.1642C155.248 14.231 154.971 14.2907 154.656 14.3432C154.346 14.3909 154.042 14.4339 153.746 14.4721C153.455 14.5055 153.219 14.5341 153.038 14.558C152.598 14.6153 152.188 14.7084 151.806 14.8372C151.429 14.9614 151.123 15.1499 150.889 15.4029C150.66 15.6511 150.546 15.9901 150.546 16.4197C150.546 17.0068 150.763 17.4508 151.197 17.7515C151.637 18.0475 152.193 18.1954 152.866 18.1954Z" fill="white"/>
<path d="M162.423 4.79127V19.4557H160.733V4.79127H162.423Z" fill="white"/>
<path d="M175.342 19.6848C174.426 19.6848 173.616 19.4533 172.915 18.9902C172.213 18.5224 171.664 17.8637 171.268 17.014C170.872 16.1595 170.674 15.1499 170.674 13.9852C170.674 12.83 170.872 11.8275 171.268 10.9778C171.664 10.1281 172.215 9.47175 172.922 9.00872C173.628 8.54568 174.445 8.31416 175.371 8.31416C176.087 8.31416 176.652 8.4335 177.068 8.67218C177.488 8.90609 177.808 9.1734 178.027 9.47414C178.252 9.7701 178.426 10.0136 178.55 10.2045H178.693V4.79127H180.383V19.4557H178.75V17.7658H178.55C178.426 17.9663 178.249 18.2193 178.02 18.5248C177.791 18.8256 177.464 19.0953 177.039 19.3339C176.614 19.5678 176.049 19.6848 175.342 19.6848ZM175.571 18.1668C176.249 18.1668 176.822 17.9902 177.29 17.6369C177.757 17.2789 178.113 16.7849 178.357 16.1547C178.6 15.5199 178.722 14.7871 178.722 13.9565C178.722 13.1355 178.602 12.417 178.364 11.8013C178.125 11.1807 177.772 10.6986 177.304 10.3549C176.836 10.0064 176.259 9.83216 175.571 9.83216C174.855 9.83216 174.258 10.0159 173.781 10.3835C173.309 10.7463 172.953 11.2404 172.714 11.8657C172.48 12.4863 172.363 13.1832 172.363 13.9565C172.363 14.7394 172.483 15.4506 172.721 16.0903C172.965 16.7252 173.323 17.2312 173.795 17.6083C174.273 17.9806 174.865 18.1668 175.571 18.1668Z" fill="white"/>
<path d="M188.324 19.6848C187.264 19.6848 186.35 19.4509 185.581 18.9831C184.818 18.5105 184.228 17.8518 183.813 17.0068C183.402 16.1571 183.197 15.169 183.197 14.0424C183.197 12.9159 183.402 11.923 183.813 11.0637C184.228 10.1997 184.806 9.52665 185.546 9.04452C186.29 8.55761 187.159 8.31416 188.152 8.31416C188.725 8.31416 189.29 8.40963 189.849 8.60058C190.407 8.79152 190.916 9.1018 191.374 9.53142C191.832 9.95627 192.198 10.5196 192.47 11.2213C192.742 11.923 192.878 12.787 192.878 13.8133V14.5293H184.4V13.0686H191.159C191.159 12.4481 191.035 11.8943 190.787 11.4074C190.543 10.9205 190.195 10.5363 189.742 10.2546C189.293 9.97298 188.763 9.83216 188.152 9.83216C187.479 9.83216 186.896 9.99923 186.405 10.3334C185.918 10.6628 185.543 11.0924 185.281 11.6222C185.018 12.1521 184.887 12.7202 184.887 13.3264V14.3002C184.887 15.1308 185.03 15.8349 185.316 16.4125C185.608 16.9853 186.011 17.4221 186.527 17.7229C187.042 18.0188 187.641 18.1668 188.324 18.1668C188.768 18.1668 189.169 18.1048 189.527 17.9806C189.89 17.8518 190.202 17.6608 190.465 17.4078C190.727 17.15 190.93 16.8302 191.073 16.4483L192.706 16.9066C192.534 17.4603 192.245 17.9472 191.84 18.3673C191.434 18.7826 190.933 19.1072 190.336 19.3411C189.739 19.5702 189.068 19.6848 188.324 19.6848Z" fill="white"/>
<path d="M213.149 9.3739H211.373C211.268 8.86312 211.084 8.41441 210.822 8.02775C210.564 7.64109 210.249 7.31649 209.876 7.05394C209.509 6.78662 209.101 6.58613 208.652 6.45247C208.203 6.31881 207.735 6.25198 207.249 6.25198C206.361 6.25198 205.556 6.47634 204.836 6.92505C204.12 7.37377 203.549 8.03491 203.124 8.90847C202.704 9.78204 202.494 10.8537 202.494 12.1235C202.494 13.3932 202.704 14.4649 203.124 15.3385C203.549 16.212 204.12 16.8732 204.836 17.3219C205.556 17.7706 206.361 17.995 207.249 17.995C207.735 17.995 208.203 17.9281 208.652 17.7945C209.101 17.6608 209.509 17.4627 209.876 17.2002C210.249 16.9328 210.564 16.6058 210.822 16.2192C211.084 15.8278 211.268 15.379 211.373 14.873H213.149C213.015 15.6225 212.772 16.2932 212.418 16.8851C212.065 17.477 211.626 17.9806 211.101 18.3959C210.576 18.8065 209.986 19.1191 209.332 19.3339C208.683 19.5488 207.988 19.6562 207.249 19.6562C205.998 19.6562 204.886 19.3507 203.912 18.7396C202.938 18.1286 202.172 17.2598 201.613 16.1333C201.055 15.0067 200.776 13.6701 200.776 12.1235C200.776 10.5768 201.055 9.24024 201.613 8.11367C202.172 6.98711 202.938 6.11832 203.912 5.50731C204.886 4.89629 205.998 4.59078 207.249 4.59078C207.988 4.59078 208.683 4.69819 209.332 4.913C209.986 5.12781 210.576 5.44286 211.101 5.85816C211.626 6.26869 212.065 6.76991 212.418 7.36184C212.772 7.94898 213.015 8.61967 213.149 9.3739Z" fill="white"/>
<path d="M215.789 19.4557V8.45737H217.422V10.1186H217.536C217.737 9.57438 218.1 9.13283 218.625 8.79391C219.15 8.45498 219.742 8.28552 220.4 8.28552C220.524 8.28552 220.68 8.28791 220.866 8.29268C221.052 8.29746 221.193 8.30462 221.288 8.31416V10.0326C221.231 10.0183 221.1 9.99685 220.894 9.9682C220.694 9.93479 220.482 9.91808 220.257 9.91808C219.723 9.91808 219.245 10.0303 218.825 10.2546C218.41 10.4742 218.08 10.7797 217.837 11.1711C217.598 11.5578 217.479 11.9994 217.479 12.4958V19.4557H215.789Z" fill="white"/>
<path d="M223.291 19.4557V8.45737H224.981V19.4557H223.291ZM224.151 6.62432C223.821 6.62432 223.537 6.51214 223.299 6.28778C223.065 6.06343 222.948 5.79372 222.948 5.47866C222.948 5.16361 223.065 4.8939 223.299 4.66954C223.537 4.44519 223.821 4.33301 224.151 4.33301C224.48 4.33301 224.762 4.44519 224.996 4.66954C225.234 4.8939 225.354 5.16361 225.354 5.47866C225.354 5.79372 225.234 6.06343 224.996 6.28778C224.762 6.51214 224.48 6.62432 224.151 6.62432Z" fill="white"/>
<path d="M231.313 19.7134C230.616 19.7134 229.983 19.5822 229.415 19.3196C228.847 19.0523 228.396 18.668 228.062 18.1668C227.728 17.6608 227.561 17.0498 227.561 16.3338C227.561 15.7036 227.685 15.1929 227.933 14.8014C228.181 14.4052 228.513 14.095 228.928 13.8706C229.344 13.6462 229.802 13.4792 230.303 13.3694C230.809 13.2548 231.318 13.1641 231.828 13.0973C232.497 13.0114 233.038 12.9469 233.454 12.9039C233.874 12.8562 234.179 12.7774 234.37 12.6677C234.566 12.5579 234.664 12.3669 234.664 12.0948V12.0375C234.664 11.3311 234.47 10.7821 234.084 10.3907C233.702 9.99923 233.122 9.80352 232.344 9.80352C231.537 9.80352 230.905 9.98014 230.446 10.3334C229.988 10.6866 229.666 11.0637 229.48 11.4647L227.876 10.8919C228.162 10.2236 228.544 9.70327 229.021 9.33093C229.504 8.95382 230.029 8.69127 230.597 8.54329C231.17 8.39054 231.733 8.31416 232.287 8.31416C232.64 8.31416 233.046 8.35713 233.504 8.44305C233.967 8.5242 234.413 8.69366 234.843 8.95143C235.277 9.20921 235.638 9.59825 235.924 10.1186C236.21 10.6389 236.354 11.3358 236.354 12.2094V19.4557H234.664V17.9663H234.578C234.463 18.205 234.272 18.4604 234.005 18.7325C233.738 19.0046 233.382 19.2361 232.938 19.427C232.494 19.618 231.952 19.7134 231.313 19.7134ZM231.571 18.1954C232.239 18.1954 232.802 18.0642 233.26 17.8016C233.723 17.5391 234.072 17.2002 234.306 16.7849C234.544 16.3696 234.664 15.9328 234.664 15.4745V13.9279C234.592 14.0138 234.435 14.0926 234.191 14.1642C233.953 14.231 233.676 14.2907 233.361 14.3432C233.05 14.3909 232.747 14.4339 232.451 14.4721C232.16 14.5055 231.924 14.5341 231.742 14.558C231.303 14.6153 230.893 14.7084 230.511 14.8372C230.134 14.9614 229.828 15.1499 229.594 15.4029C229.365 15.6511 229.251 15.9901 229.251 16.4197C229.251 17.0068 229.468 17.4508 229.902 17.7515C230.341 18.0475 230.897 18.1954 231.571 18.1954Z" fill="white"/>
<path d="M244.221 8.45737V9.88944H238.521V8.45737H244.221ZM240.183 5.82236H241.872V16.3051C241.872 16.7825 241.942 17.1405 242.08 17.3792C242.223 17.6131 242.405 17.7706 242.624 17.8518C242.849 17.9281 243.085 17.9663 243.333 17.9663C243.519 17.9663 243.672 17.9568 243.791 17.9377C243.911 17.9138 244.006 17.8947 244.078 17.8804L244.422 19.3984C244.307 19.4413 244.147 19.4843 243.942 19.5273C243.737 19.575 243.476 19.5989 243.161 19.5989C242.684 19.5989 242.216 19.4962 241.758 19.291C241.304 19.0857 240.927 18.773 240.627 18.353C240.331 17.9329 240.183 17.403 240.183 16.7634V5.82236Z" fill="white"/>
<path d="M246.763 19.4557V8.45737H248.453V19.4557H246.763ZM247.622 6.62432C247.293 6.62432 247.009 6.51214 246.77 6.28778C246.536 6.06343 246.419 5.79372 246.419 5.47866C246.419 5.16361 246.536 4.8939 246.77 4.66954C247.009 4.44519 247.293 4.33301 247.622 4.33301C247.952 4.33301 248.233 4.44519 248.467 4.66954C248.706 4.8939 248.825 5.16361 248.825 5.47866C248.825 5.79372 248.706 6.06343 248.467 6.28778C248.233 6.51214 247.952 6.62432 247.622 6.62432Z" fill="white"/>
<path d="M260.541 8.45737L256.474 19.4557H254.756L250.689 8.45737H252.522L255.558 17.2216H255.672L258.708 8.45737H260.541Z" fill="white"/>
<path d="M266.846 19.6848C265.853 19.6848 264.982 19.4485 264.232 18.9759C263.488 18.5033 262.905 17.8422 262.485 16.9925C262.07 16.1428 261.862 15.1499 261.862 14.0138C261.862 12.8681 262.07 11.8681 262.485 11.0136C262.905 10.1591 263.488 9.49562 264.232 9.02304C264.982 8.55045 265.853 8.31416 266.846 8.31416C267.839 8.31416 268.708 8.55045 269.452 9.02304C270.202 9.49562 270.784 10.1591 271.199 11.0136C271.62 11.8681 271.83 12.8681 271.83 14.0138C271.83 15.1499 271.62 16.1428 271.199 16.9925C270.784 17.8422 270.202 18.5033 269.452 18.9759C268.708 19.4485 267.839 19.6848 266.846 19.6848ZM266.846 18.1668C267.6 18.1668 268.221 17.9735 268.708 17.5868C269.195 17.2002 269.555 16.6918 269.789 16.0617C270.023 15.4316 270.14 14.7489 270.14 14.0138C270.14 13.2787 270.023 12.5937 269.789 11.9588C269.555 11.3239 269.195 10.8107 268.708 10.4193C268.221 10.0279 267.6 9.83216 266.846 9.83216C266.092 9.83216 265.471 10.0279 264.984 10.4193C264.497 10.8107 264.137 11.3239 263.903 11.9588C263.669 12.5937 263.552 13.2787 263.552 14.0138C263.552 14.7489 263.669 15.4316 263.903 16.0617C264.137 16.6918 264.497 17.2002 264.984 17.5868C265.471 17.9735 266.092 18.1668 266.846 18.1668Z" fill="white"/>
<path d="M282.2 10.9205L280.682 11.3502C280.586 11.0972 280.445 10.8513 280.259 10.6126C280.078 10.3692 279.829 10.1687 279.514 10.0112C279.199 9.85364 278.796 9.77487 278.304 9.77487C277.631 9.77487 277.07 9.93002 276.622 10.2403C276.178 10.5458 275.956 10.9349 275.956 11.4074C275.956 11.8275 276.108 12.1593 276.414 12.4027C276.72 12.6462 277.197 12.8491 277.846 13.0114L279.479 13.4123C280.462 13.651 281.195 14.0162 281.677 14.5079C282.159 14.9948 282.4 15.6225 282.4 16.391C282.4 17.0211 282.219 17.5844 281.856 18.0809C281.498 18.5773 280.997 18.9688 280.352 19.2552C279.708 19.5416 278.958 19.6848 278.104 19.6848C276.982 19.6848 276.054 19.4413 275.318 18.9544C274.583 18.4675 274.118 17.7563 273.922 16.8207L275.526 16.4197C275.679 17.0116 275.968 17.4555 276.393 17.7515C276.822 18.0475 277.383 18.1954 278.075 18.1954C278.863 18.1954 279.488 18.0284 279.951 17.6942C280.419 17.3553 280.653 16.9495 280.653 16.477C280.653 16.0951 280.519 15.7752 280.252 15.5175C279.985 15.2549 279.574 15.0592 279.02 14.9303L277.187 14.5007C276.18 14.262 275.44 13.8921 274.968 13.3909C274.5 12.8849 274.266 12.2524 274.266 11.4934C274.266 10.8728 274.44 10.3238 274.789 9.84648C275.142 9.36912 275.622 8.9944 276.228 8.7223C276.839 8.45021 277.531 8.31416 278.304 8.31416C279.393 8.31416 280.247 8.55284 280.868 9.0302C281.493 9.50755 281.937 10.1377 282.2 10.9205Z" fill="white"/>
</g>
<defs>
<clipPath id="clip0_1934_653">
<rect width="283" height="22" fill="white" transform="translate(0 0.333008)"/>
</clipPath>
</defs>
</svg>
