<svg width="718" height="94" viewBox="0 0 718 94" fill="none" xmlns="http://www.w3.org/2000/svg">
<path d="M30.3679 75.611C21.9859 75.611 15.2209 73.664 10.0729 69.77C4.99094 65.81 1.88894 59.837 0.766937 51.851L16.1119 48.782C16.7059 53.6 18.2569 57.23 20.7649 59.672C23.3389 62.114 26.5399 63.335 30.3679 63.335C33.6679 63.335 36.2089 62.576 37.9909 61.058C39.7729 59.474 40.6639 57.296 40.6639 54.524C40.6639 52.148 40.0039 50.234 38.6839 48.782C37.3639 47.33 35.1199 46.109 31.9519 45.119L20.7649 41.654C15.8809 40.202 11.9869 37.826 9.08294 34.526C6.24494 31.16 4.82594 27.2 4.82594 22.646C4.82594 18.686 5.81594 15.188 7.79594 12.152C9.84194 9.04997 12.7129 6.67397 16.4089 5.02397C20.1049 3.30797 24.4279 2.44997 29.3779 2.44997C36.5719 2.44997 42.4459 4.09997 46.9999 7.39997C51.6199 10.7 54.4249 15.254 55.4149 21.062L40.6639 23.339C39.9379 20.303 38.6179 18.026 36.7039 16.508C34.7899 14.99 32.3809 14.231 29.4769 14.231C26.9029 14.231 24.8239 14.891 23.2399 16.211C21.6559 17.465 20.8639 19.181 20.8639 21.359C20.8639 24.923 23.2729 27.497 28.0909 29.081L40.5649 32.942C45.7789 34.592 49.7719 37.1 52.5439 40.466C55.3159 43.832 56.7019 48.056 56.7019 53.138C56.7019 57.626 55.6459 61.586 53.5339 65.018C51.4879 68.384 48.4849 70.991 44.5249 72.839C40.5649 74.687 35.8459 75.611 30.3679 75.611Z" fill="white"/>
<path d="M63.5701 22.25H77.3311V28.685C78.9151 26.111 81.0931 24.197 83.8651 22.943C86.7031 21.689 89.8711 21.062 93.3691 21.062C97.6591 21.062 101.553 22.184 105.051 24.428C108.549 26.606 111.288 29.741 113.268 33.833C115.314 37.925 116.337 42.644 116.337 47.99C116.337 53.402 115.347 58.154 113.367 62.246C111.387 66.338 108.648 69.506 105.15 71.75C101.718 73.994 97.7911 75.116 93.3691 75.116C90.2671 75.116 87.3961 74.555 84.7561 73.433C82.1161 72.245 79.9381 70.529 78.2221 68.285V93.728H63.5701V22.25ZM77.3311 48.089C77.3311 52.775 78.4201 56.405 80.5981 58.979C82.7761 61.553 85.6801 62.84 89.3101 62.84C92.9401 62.84 95.8441 61.553 98.0221 58.979C100.2 56.405 101.289 52.775 101.289 48.089C101.289 43.403 100.2 39.773 98.0221 37.199C95.8441 34.559 92.9401 33.239 89.3101 33.239C85.6801 33.239 82.7761 34.559 80.5981 37.199C78.4201 39.773 77.3311 43.403 77.3311 48.089Z" fill="white"/>
<path d="M154.984 68.285C153.4 70.463 151.321 72.146 148.747 73.334C146.239 74.522 143.302 75.116 139.936 75.116C134.59 75.116 130.234 73.763 126.868 71.057C123.568 68.351 121.918 64.754 121.918 60.266C121.918 55.91 123.337 52.346 126.175 49.574C129.013 46.802 133.039 44.888 138.253 43.832L153.598 40.565V40.169C153.598 34.889 151.024 32.249 145.876 32.249C141.19 32.249 138.286 34.592 137.164 39.278L123.205 36.506C124.261 31.688 126.835 27.926 130.927 25.22C135.019 22.448 140.167 21.062 146.371 21.062C153.697 21.062 159.175 22.811 162.805 26.309C166.435 29.807 168.25 34.79 168.25 41.258V64.226L171.913 73.928H156.964L154.984 68.285ZM136.669 58.682C136.669 60.464 137.329 61.883 138.649 62.939C139.969 63.929 141.619 64.424 143.599 64.424C146.701 64.424 149.143 63.5 150.925 61.652C152.707 59.804 153.598 57.362 153.598 54.326V49.871L143.401 52.346C141.157 52.874 139.474 53.633 138.352 54.623C137.23 55.613 136.669 56.966 136.669 58.682Z" fill="white"/>
<path d="M177.845 22.25H191.606V27.596C192.662 25.55 194.246 23.966 196.358 22.844C198.536 21.656 201.077 21.062 203.981 21.062C205.301 21.062 206.357 21.161 207.149 21.359V35.318C205.367 34.988 203.849 34.823 202.595 34.823C199.493 34.823 197.018 35.879 195.17 37.991C193.388 40.037 192.497 43.238 192.497 47.594V73.928H177.845V22.25Z" fill="white"/>
<path d="M213.327 4.13297H227.979V39.179L245.106 22.25H263.421L245.304 39.872L264.411 73.928H247.482L235.008 49.871L227.979 56.801V73.928H213.327V4.13297Z" fill="white"/>
<path d="M315.607 75.116C310.525 75.116 306.004 74.027 302.044 71.849C298.084 69.605 294.982 66.437 292.738 62.345C290.494 58.253 289.372 53.501 289.372 48.089C289.372 42.677 290.494 37.925 292.738 33.833C294.982 29.741 298.084 26.606 302.044 24.428C306.004 22.184 310.525 21.062 315.607 21.062C322.009 21.062 327.223 22.448 331.249 25.22C335.275 27.926 338.113 31.853 339.763 37.001L326.2 41.258C325.21 38.354 323.824 36.308 322.042 35.12C320.326 33.866 318.214 33.239 315.706 33.239C312.406 33.239 309.7 34.526 307.588 37.1C305.476 39.674 304.42 43.337 304.42 48.089C304.42 52.841 305.476 56.504 307.588 59.078C309.7 61.586 312.406 62.84 315.706 62.84C318.214 62.84 320.326 62.246 322.042 61.058C323.758 59.804 325.144 57.725 326.2 54.821L339.763 59.177C338.113 64.325 335.275 68.285 331.249 71.057C327.223 73.763 322.009 75.116 315.607 75.116Z" fill="white"/>
<path d="M345.875 22.25H359.636V27.596C360.692 25.55 362.276 23.966 364.388 22.844C366.566 21.656 369.107 21.062 372.011 21.062C373.331 21.062 374.387 21.161 375.179 21.359V35.318C373.397 34.988 371.879 34.823 370.625 34.823C367.523 34.823 365.048 35.879 363.2 37.991C361.418 40.037 360.527 43.238 360.527 47.594V73.928H345.875V22.25Z" fill="white"/>
<path d="M405.043 75.116C399.697 75.116 395.011 73.994 390.985 71.75C387.025 69.44 383.956 66.206 381.778 62.048C379.6 57.89 378.511 53.072 378.511 47.594C378.511 42.446 379.6 37.859 381.778 33.833C384.022 29.807 387.124 26.672 391.084 24.428C395.044 22.184 399.532 21.062 404.548 21.062C409.432 21.062 413.722 22.085 417.418 24.131C421.18 26.177 424.084 29.081 426.13 32.843C428.176 36.605 429.199 40.994 429.199 46.01C429.199 48.584 429.067 50.498 428.803 51.752H392.767C393.031 55.448 394.219 58.352 396.331 60.464C398.443 62.51 401.446 63.533 405.34 63.533C410.818 63.533 414.712 61.256 417.022 56.702L428.209 62.147C426.229 66.305 423.193 69.506 419.101 71.75C415.009 73.994 410.323 75.116 405.043 75.116ZM415.042 42.347C414.778 38.915 413.689 36.308 411.775 34.526C409.927 32.744 407.353 31.853 404.053 31.853C400.885 31.853 398.311 32.744 396.331 34.526C394.351 36.308 393.196 38.915 392.866 42.347H415.042Z" fill="white"/>
<path d="M467.356 68.285C465.772 70.463 463.693 72.146 461.119 73.334C458.611 74.522 455.674 75.116 452.308 75.116C446.962 75.116 442.606 73.763 439.24 71.057C435.94 68.351 434.29 64.754 434.29 60.266C434.29 55.91 435.709 52.346 438.547 49.574C441.385 46.802 445.411 44.888 450.625 43.832L465.97 40.565V40.169C465.97 34.889 463.396 32.249 458.248 32.249C453.562 32.249 450.658 34.592 449.536 39.278L435.577 36.506C436.633 31.688 439.207 27.926 443.299 25.22C447.391 22.448 452.539 21.062 458.743 21.062C466.069 21.062 471.547 22.811 475.177 26.309C478.807 29.807 480.622 34.79 480.622 41.258V64.226L484.285 73.928H469.336L467.356 68.285ZM449.041 58.682C449.041 60.464 449.701 61.883 451.021 62.939C452.341 63.929 453.991 64.424 455.971 64.424C459.073 64.424 461.515 63.5 463.297 61.652C465.079 59.804 465.97 57.362 465.97 54.326V49.871L455.773 52.346C453.529 52.874 451.846 53.633 450.724 54.623C449.602 55.613 449.041 56.966 449.041 58.682Z" fill="white"/>
<path d="M510.639 74.918C505.425 74.918 501.465 73.664 498.759 71.156C496.053 68.648 494.7 64.985 494.7 60.167V33.635H485.988V22.25H494.7V11.063L509.352 4.82597V22.25H519.351V33.635H509.352V56.999C509.352 60.563 511.101 62.345 514.599 62.345C516.051 62.345 517.47 62.081 518.856 61.553V73.631C516.084 74.489 513.345 74.918 510.639 74.918Z" fill="white"/>
<path d="M525.989 22.25H540.641V73.928H525.989V22.25ZM533.315 17.102C530.873 17.102 528.827 16.31 527.177 14.726C525.593 13.076 524.801 11.063 524.801 8.68697C524.801 6.31097 525.593 4.33097 527.177 2.74697C528.827 1.09697 530.873 0.271973 533.315 0.271973C535.757 0.271973 537.803 1.09697 539.453 2.74697C541.103 4.33097 541.928 6.31097 541.928 8.68697C541.928 11.063 541.103 13.076 539.453 14.726C537.803 16.31 535.757 17.102 533.315 17.102Z" fill="white"/>
<path d="M545.907 22.25H562.143L573.231 64.919L584.319 22.25H600.456L584.319 73.928H562.143L545.907 22.25Z" fill="white"/>
<path d="M605.75 22.25H620.402V73.928H605.75V22.25ZM613.076 17.102C610.634 17.102 608.588 16.31 606.938 14.726C605.354 13.076 604.562 11.063 604.562 8.68697C604.562 6.31097 605.354 4.33097 606.938 2.74697C608.588 1.09697 610.634 0.271973 613.076 0.271973C615.518 0.271973 617.564 1.09697 619.214 2.74697C620.864 4.33097 621.689 6.31097 621.689 8.68697C621.689 11.063 620.864 13.076 619.214 14.726C617.564 16.31 615.518 17.102 613.076 17.102Z" fill="white"/>
<path d="M651.308 74.918C646.094 74.918 642.134 73.664 639.428 71.156C636.722 68.648 635.369 64.985 635.369 60.167V33.635H626.657V22.25H635.369V11.063L650.021 4.82597V22.25H660.02V33.635H650.021V56.999C650.021 60.563 651.77 62.345 655.268 62.345C656.72 62.345 658.139 62.081 659.525 61.553V73.631C656.753 74.489 654.014 74.918 651.308 74.918Z" fill="white"/>
<path d="M686.048 73.334H680.504L663.179 22.25H678.128L690.404 61.157L702.284 22.25H717.233L694.463 93.728H679.514L686.048 73.334Z" fill="white"/>
</svg>

