<svg width="42" height="42" viewBox="0 0 42 42" fill="none" xmlns="http://www.w3.org/2000/svg">
<g opacity="0.8">
<path opacity="0.25" d="M26.3281 34.6252C27.8139 31.5847 29.7407 28.361 32.8972 26.8238C34.7529 25.9201 37.3266 25.4802 39.0498 24.3108C40.9353 23.0315 42.3505 20.5083 41.2274 18.2793C38.8527 13.5669 32.1625 13.7885 28.5253 10.6007C26.6392 8.9473 26.4109 6.37248 24.9543 4.45009C23.685 2.77471 21.3816 2.12761 19.4179 2.85126C17.2578 3.64723 16.0691 5.82329 15.205 7.81799C13.4162 11.9471 9.41184 13.7322 5.4725 15.2098C3.50049 15.9495 0.427661 17.1958 0.781475 19.81C1.21028 22.9768 4.98117 24.6662 7.59894 25.6168C9.72382 26.3883 11.6729 27.156 12.8427 29.243C14.6848 32.5295 14.8897 37.1734 18.9508 38.6959C21.1925 39.5361 23.365 38.5993 24.8523 36.8632C25.6728 35.9056 26.1185 35.0538 26.3279 34.625L26.3281 34.6252Z" stroke="url(#paint0_linear_4054_309)" stroke-width="0.636957" stroke-miterlimit="10"/>
<path opacity="0.3" d="M19.5202 3.49561C21.4199 2.81001 23.6393 3.42018 24.8874 5.00499C26.3183 6.82323 26.5953 9.26699 28.4202 10.8609C31.9368 13.9329 38.2718 13.8439 40.5135 18.3862C41.5745 20.5407 40.2427 22.9729 38.4567 24.2362C36.8243 25.3913 34.3857 25.8646 32.6039 26.7585C29.6054 28.2627 27.7569 31.3282 26.2909 34.2026C26.0811 34.614 25.6451 35.4191 24.8599 36.3232C23.4252 37.967 21.3486 38.8507 19.2024 38.0736C15.2742 36.6515 14.9395 32.2806 13.1142 29.1115C11.9695 27.1243 10.1116 26.3626 8.09112 25.5965C5.59462 24.6412 2.0329 22.9847 1.62168 19.9412C1.28144 17.4218 4.16802 16.1833 6.03767 15.4229C7.83677 14.6995 9.66013 13.9108 11.2679 12.8456C12.9922 11.7032 14.4646 10.247 15.3861 8.21312C16.2535 6.31032 17.4304 4.24952 19.5199 3.49539L19.5202 3.49561Z" stroke="url(#paint1_linear_4054_309)" stroke-width="0.636957" stroke-miterlimit="10"/>
<path opacity="0.34" d="M19.6242 4.13903C21.4598 3.49148 23.5953 4.06448 24.8223 5.55873C26.2276 7.27283 26.5533 9.5853 28.3168 11.1203C31.7128 14.0765 37.6927 14.1199 39.8013 18.4925C40.8002 20.5726 39.5518 22.9136 37.8656 24.1608C36.3241 25.3015 34.0203 25.8084 32.3122 26.6925C29.4713 28.1632 27.7004 31.0713 26.2556 33.7794C26.0453 34.1735 25.6216 34.9334 24.8693 35.7826C23.4914 37.3376 21.5065 38.1647 19.4557 37.4509C15.6599 36.1293 15.1968 32.0311 13.3873 28.9794C12.2682 27.0921 10.4989 26.3422 8.58496 25.5757C6.2064 24.6228 2.8572 22.9924 2.46355 20.072C2.13711 17.6476 4.83432 16.4097 6.60472 15.6355C8.29924 14.8945 10.0329 14.109 11.5737 13.0633C13.2259 11.9418 14.6479 10.5366 15.5693 8.60775C16.4356 6.79485 17.6054 4.85155 19.6242 4.13925V4.13903Z" stroke="url(#paint2_linear_4054_309)" stroke-width="0.636957" stroke-miterlimit="10"/>
<path opacity="0.39" d="M19.7303 4.78346C21.5021 4.17397 23.5535 4.70958 24.7594 6.11349C26.1388 7.72345 26.5138 9.90485 28.2156 11.3804C31.4912 14.2207 37.1157 14.3967 39.0913 18.5995C40.0279 20.6054 38.8632 22.8551 37.2764 24.0865C35.8257 25.2129 33.657 25.7528 32.0226 26.6277C29.3394 28.0641 27.6444 30.8154 26.222 33.3573C26.0111 33.7343 25.5985 34.4479 24.8802 35.243C23.5571 36.7074 21.6656 37.4802 19.7108 36.8291C16.0469 35.6086 15.4563 31.7827 13.6621 28.8483C12.5693 27.0608 10.8888 26.3198 9.08057 25.5558C6.82151 24.6017 3.68326 23.0008 3.30719 20.2037C2.99432 17.8743 5.50372 16.6409 7.17332 15.8491C8.84292 15.0574 10.4073 14.3082 11.881 13.2821C13.4614 12.1817 14.8348 10.8281 15.7543 9.00318C16.6217 7.28107 17.7819 5.45415 19.7301 4.78368L19.7303 4.78346Z" stroke="url(#paint3_linear_4054_309)" stroke-width="0.636957" stroke-miterlimit="10"/>
<path opacity="0.44" d="M19.8365 5.42649C21.5441 4.85482 23.5117 5.3535 24.6966 6.66706C26.0504 8.17288 26.4741 10.223 28.1146 11.6394C31.2695 14.3637 36.5389 14.6726 38.3814 18.7054C39.2559 20.6369 38.1747 22.7954 36.6873 24.0108C35.3275 25.1228 33.2938 25.6955 31.7333 26.5614C29.2074 27.9628 27.5874 30.5577 26.1891 32.9338C25.9775 33.2934 25.576 33.9612 24.892 34.702C23.6231 36.0758 21.8252 36.7948 19.9666 36.206C16.4343 35.0867 15.7173 31.5328 13.9378 28.7156C12.8717 27.0278 11.2797 26.2952 9.57699 25.5344C7.43742 24.5785 4.51012 23.0077 4.15163 20.3338C3.85256 18.0995 6.17371 16.8709 7.74295 16.0611C9.23052 15.2934 10.7826 14.5057 12.1892 13.4992C13.6977 12.42 15.023 11.1182 15.9398 9.39721C16.8088 7.76588 17.959 6.05556 19.8365 5.42693V5.42649Z" stroke="url(#paint4_linear_4054_309)" stroke-width="0.636957" stroke-miterlimit="10"/>
<path opacity="0.48" d="M19.935 6.07089C21.5786 5.53728 23.4622 5.9988 24.626 7.22179C25.9543 8.62347 26.4267 10.5425 28.006 11.8997C31.0405 14.5081 35.963 14.9458 37.664 18.8124C38.4802 20.6678 37.4786 22.737 36.0907 23.9362C34.8216 25.0339 32.9229 25.639 31.4362 26.4961C29.0676 27.8618 27.5206 30.3006 26.1481 32.5114C25.9356 32.8537 25.5453 33.4754 24.8955 34.1619C23.6812 35.4452 21.9762 36.1107 20.2143 35.5836C16.813 34.5662 15.9708 31.2833 14.2052 28.5839C13.1663 26.9953 11.6622 26.2714 10.0652 25.5139C8.04512 24.5557 5.32877 23.0154 4.98786 20.4649C4.70236 18.3255 6.83548 17.1021 8.30436 16.2741C9.68846 15.4937 11.1498 14.7039 12.4894 13.7173C13.926 12.6589 15.2035 11.409 16.1174 9.79194C16.9881 8.25141 18.1283 6.65769 19.935 6.07067V6.07089Z" stroke="url(#paint5_linear_4054_309)" stroke-width="0.636957" stroke-miterlimit="10"/>
<path opacity="0.53" d="M20.0375 6.71482C21.6172 6.21926 23.4168 6.64361 24.5594 7.77604C25.8619 9.07357 26.3833 10.8613 27.9011 12.1593C30.815 14.652 35.3837 15.2219 36.9502 18.9189C37.7048 20.6998 36.7862 22.678 35.4978 23.8614C34.3198 24.9449 32.5558 25.5815 31.1428 26.4307C28.9314 27.7596 27.4558 30.0429 26.1111 32.0886C25.8975 32.4137 25.5185 32.9889 24.9032 33.6215C23.743 34.8143 22.1313 35.4269 20.4659 34.9611C17.1948 34.0465 16.2293 31.0336 14.4769 28.4521C13.466 26.9627 12.0492 26.2473 10.5576 25.4934C8.65678 24.5328 6.15138 23.0232 5.82827 20.5959C5.55657 18.5515 7.50143 17.3339 8.86973 16.487C10.1504 15.6943 11.5209 14.9024 12.7935 13.9353C14.158 12.8981 15.3881 11.7 16.2989 10.1869C17.1714 8.73712 18.3014 7.25978 20.0375 6.71482Z" stroke="url(#paint6_linear_4054_309)" stroke-width="0.636957" stroke-miterlimit="10"/>
<path opacity="0.58" d="M20.141 7.35836C21.6567 6.90062 23.3723 7.28804 24.4941 8.33012C25.7709 9.52351 26.341 11.1802 27.7974 12.4188C30.5908 14.7956 34.8052 15.4978 36.2378 19.0253C36.9307 20.7316 36.0951 22.6188 34.9062 23.7862C33.8189 24.8552 32.1898 25.5234 30.8507 26.365C28.7959 27.6563 27.3898 29.7843 26.0753 31.6658C25.8601 31.9735 25.4927 32.5027 24.912 33.0812C23.8058 34.1832 22.2868 34.7435 20.7187 34.3387C17.5773 33.5276 16.4899 30.7837 14.7495 28.3203C13.7671 26.9298 12.437 26.2228 11.0509 25.4729C9.26942 24.5094 6.97519 23.0309 6.66967 20.7269C6.41154 18.7776 8.16814 17.5664 9.43631 16.6997C10.6135 15.8953 11.8934 15.1006 13.0986 14.1531C14.3913 13.1369 15.5742 11.9909 16.4814 10.5816C17.3562 9.22289 18.4757 7.86193 20.141 7.35858V7.35836Z" stroke="url(#paint7_linear_4054_309)" stroke-width="0.636957" stroke-miterlimit="10"/>
<path opacity="0.62" d="M20.2456 8.00234C21.6972 7.58266 23.3289 7.93269 24.4295 8.88442C25.6806 9.97368 26.2996 11.4993 27.6946 12.6785C30.3676 14.9393 34.2275 15.7742 35.5264 19.1319C36.1577 20.7639 35.4051 22.5599 34.3156 23.7112C33.3192 24.766 31.8247 25.4649 30.5599 26.2994C28.6613 27.5517 27.323 29.5249 26.0406 31.2427C25.8239 31.5331 25.4681 32.016 24.9218 32.5407C23.8692 33.5519 22.4431 34.061 20.9726 33.7161C17.9603 33.0096 16.7525 30.5331 15.0232 28.1882C14.0702 26.896 12.826 26.1972 11.5452 25.4522C9.88315 24.4851 7.79988 23.0385 7.51193 20.8575C7.2676 19.003 8.83595 17.799 10.0038 16.9122C11.0774 16.0966 12.2666 15.2987 13.4048 14.3707C14.6256 13.3756 15.7616 12.2815 16.6652 10.9759C17.5426 9.70798 18.651 8.4634 20.2459 8.00211L20.2456 8.00234Z" stroke="url(#paint8_linear_4054_309)" stroke-width="0.636957" stroke-miterlimit="10"/>
<path opacity="0.67" d="M20.353 8.64678C21.7407 8.26515 23.2885 8.57802 24.3678 9.43919C25.5932 10.4241 26.261 11.8186 27.5946 12.9388C30.147 15.0837 33.6521 16.0513 34.8175 19.2389C35.3869 20.7966 34.7176 22.5013 33.7276 23.6369C32.8221 24.6772 31.4621 25.4062 30.2713 26.2344C28.5285 27.4467 27.2557 29.265 26.0085 30.8206C25.7895 31.0937 25.4457 31.5303 24.9343 32.0011C23.9352 32.9213 22.6016 33.3801 21.2291 33.0942C18.3449 32.4936 17.0192 30.2823 15.2995 28.0569C14.3767 26.8626 13.2178 26.1723 12.0422 25.4322C10.4999 24.4611 8.62733 23.0468 8.35696 20.9891C8.12621 19.2296 9.50674 18.0333 10.5737 17.1256C11.5444 16.2998 12.6423 15.4976 13.7136 14.5893C14.8622 13.6153 15.9519 12.5732 16.8514 11.3714C17.7508 10.1695 18.8287 9.06624 20.353 8.64656V8.64678Z" stroke="url(#paint9_linear_4054_309)" stroke-width="0.636957" stroke-miterlimit="10"/>
<path opacity="0.72" d="M20.455 9.29036C21.7786 8.94656 23.2426 9.22249 24.3009 9.99331C25.5008 10.8741 26.2175 12.1376 27.4897 13.1983C29.9217 15.2275 33.0717 16.3277 34.1038 19.3453C34.6111 20.8287 34.0252 22.4424 33.1349 23.5617C32.3202 24.5878 31.0941 25.3459 29.9782 26.1688C28.3902 27.3397 27.181 29.0026 25.9714 30.3979C25.75 30.6533 25.4182 31.0434 24.9418 31.4609C23.9958 32.2895 22.7548 32.6997 21.4806 32.4718C18.7238 31.9789 17.2825 30.0305 15.5709 27.9252C14.6792 26.8284 13.6046 26.1461 12.5343 25.4118C11.1119 24.4358 9.44989 23.0546 9.19711 21.1202C8.98014 19.4557 10.1731 18.2681 11.1391 17.3386C12.0069 16.5032 13.0134 15.6962 14.0174 14.8074C15.0942 13.8543 16.1381 12.865 17.0326 11.7662C17.9165 10.6807 19.0017 9.66843 20.455 9.29058V9.29036Z" stroke="url(#paint10_linear_4054_309)" stroke-width="0.636957" stroke-miterlimit="10"/>
<path opacity="0.77" d="M20.5583 9.93387C21.8178 9.62812 23.1979 9.86689 24.2351 10.5471C25.4091 11.3238 26.1748 12.456 27.3856 13.4575C29.6969 15.3708 32.4916 16.604 33.3908 19.4514C33.8359 20.8607 33.3336 22.383 32.5428 23.4862C31.8189 24.4981 30.7261 25.2842 29.6858 26.1027C28.2521 27.2304 27.1043 28.7378 25.9354 29.9744C25.7111 30.2118 25.3915 30.5558 24.9505 30.9199C24.057 31.6571 22.9088 32.0196 21.7334 31.8487C19.1034 31.4662 17.5487 29.7766 15.8435 27.7928C14.9838 26.7927 13.9934 26.1187 13.0276 25.3906C11.7254 24.4088 10.2737 23.0619 10.0385 21.2505C9.83508 19.6811 10.8416 18.503 11.7054 17.5509C12.4713 16.7068 13.3855 15.8937 14.3225 15.0248C15.3274 14.0928 16.3257 13.156 17.2151 12.1604C18.1027 11.1667 19.1758 10.2699 20.5585 9.93387H20.5583Z" stroke="url(#paint11_linear_4054_309)" stroke-width="0.636957" stroke-miterlimit="10"/>
<path opacity="0.81" d="M20.6646 10.5779C21.8602 10.3102 23.1562 10.5118 24.1723 11.1015C25.3207 11.774 26.1351 12.7751 27.2845 13.7175C29.4754 15.5148 31.9141 16.8813 32.6809 19.5583C33.0634 20.8934 32.6451 22.3243 31.9537 23.4115C31.3206 24.4089 30.3604 25.2222 29.3962 26.0373C28.1152 27.1203 27.0275 28.4711 25.9019 29.5519C25.6741 29.7708 25.367 30.069 24.9616 30.3796C24.12 31.0247 23.065 31.3421 21.9884 31.2263C19.4843 30.9571 17.819 29.5216 16.1182 27.6608C15.2918 26.7565 14.3848 26.0909 13.5232 25.37C12.342 24.3815 11.0996 23.0695 10.882 21.3814C10.6924 19.907 11.5129 18.7392 12.2741 17.7637C12.9388 16.9116 13.7599 16.092 14.6298 15.2427C15.5628 14.3319 16.5161 13.4482 17.4 12.555C18.2921 11.6534 19.3524 10.8719 20.6644 10.5777L20.6646 10.5779Z" stroke="url(#paint12_linear_4054_309)" stroke-width="0.636957" stroke-miterlimit="10"/>
<path opacity="0.86" d="M20.7653 11.2216C21.8969 10.9917 23.109 11.1564 24.1039 11.6557C25.2267 12.2241 26.0899 13.0939 27.1778 13.9771C29.2482 15.6585 31.3303 17.1585 31.9654 19.6648C32.285 20.9259 31.9509 22.2652 31.359 23.3367C30.817 24.3198 29.9878 25.1587 29.1011 25.9721C27.9711 27.0086 26.9424 28.2011 25.8631 29.1292C25.631 29.3288 25.3369 29.5816 24.9675 29.8395C24.1773 30.3916 23.2158 30.6662 22.2384 30.6039C19.8601 30.4524 18.0868 29.2643 16.3881 27.5291C15.5957 26.7195 14.7719 26.0626 14.0137 25.3494C12.9547 24.353 11.9207 23.0772 11.7206 21.5125C11.5446 20.133 12.1808 18.9763 12.8379 17.9765C13.4027 17.1172 14.1294 16.2905 14.9323 15.4607C15.7933 14.5708 16.7023 13.7412 17.5799 12.95C18.4771 12.1411 19.5239 11.4739 20.7653 11.2216Z" stroke="url(#paint13_linear_4054_309)" stroke-width="0.636957" stroke-miterlimit="10"/>
<path opacity="0.91" d="M20.8674 11.8654C21.9349 11.6735 23.0631 11.8008 24.037 12.2098C25.1341 12.674 26.0462 13.4128 27.0727 14.2366C29.0227 15.8022 30.7473 17.4356 31.2515 19.771C31.5078 20.9581 31.2584 22.206 30.7659 23.2612C30.3147 24.2299 29.6148 25.0928 28.8077 25.9059C27.8266 26.8942 26.8566 27.926 25.8259 28.706C25.5889 28.8851 25.3079 29.0927 24.9748 29.2988C24.2349 29.7563 23.3681 29.9919 22.4898 29.981C20.2374 29.9532 18.3585 29.0033 16.6595 27.3969C15.9022 26.6808 15.1617 26.0332 14.5059 25.3285C13.5704 24.3231 12.7433 23.0846 12.5608 21.6431C12.3986 20.3584 12.8521 19.2133 13.4031 18.189C13.8693 17.3225 14.5003 16.4885 15.2362 15.6783C16.0253 14.8096 16.8902 14.0345 17.7612 13.3445C18.6638 12.6293 19.6967 12.0759 20.8676 11.8654H20.8674Z" stroke="url(#paint14_linear_4054_309)" stroke-width="0.636957" stroke-miterlimit="10"/>
<path opacity="0.95" d="M20.971 12.5097C21.9746 12.356 23.0187 12.4461 23.9715 12.7645C25.043 13.1246 26.0039 13.7321 26.9692 14.4969C28.7985 15.9466 30.1648 17.7134 30.5391 19.8782C30.7316 20.9914 30.5674 22.1477 30.1744 23.1869C29.8139 24.1413 29.2405 25.0263 28.5157 25.8409C27.6808 26.7793 26.7711 27.6467 25.7902 28.2836C25.5479 28.4409 25.28 28.604 24.9838 28.7589C24.2933 29.1198 23.5227 29.321 22.7428 29.359C20.6177 29.4627 18.6345 28.7386 16.9322 27.2655C16.2108 26.6413 15.5541 26.0038 14.9994 25.3084C14.1896 24.293 13.5672 23.0927 13.4023 21.7745C13.2537 20.5849 13.5265 19.4511 13.9698 18.4024C14.3389 17.5285 14.8728 16.6874 15.5415 15.8968C16.2586 15.0489 17.08 14.3298 17.9438 13.7396C18.8522 13.119 19.8711 12.6784 20.9713 12.5095L20.971 12.5097Z" stroke="url(#paint15_linear_4054_309)" stroke-width="0.636957" stroke-miterlimit="10"/>
</g>
<path d="M21.9996 28.7203C26.3106 28.7203 29.8053 25.2255 29.8053 20.9146C29.8053 16.6036 26.3106 13.1089 21.9996 13.1089C17.6886 13.1089 14.1939 16.6036 14.1939 20.9146C14.1939 25.2255 17.6886 28.7203 21.9996 28.7203Z" fill="white"/>
<path d="M29.8653 20.9077C29.8653 23.0771 28.9859 25.0413 27.5642 26.463C26.1425 27.8847 24.1783 28.7641 22.0089 28.7641C19.8395 28.7641 17.8753 27.8847 16.4536 26.463C15.0319 25.0413 14.1525 23.0771 14.1525 20.9077C14.1525 16.5687 17.6699 13.0513 22.0089 13.0513C24.1783 13.0513 26.1425 13.9307 27.5642 15.3524C28.9859 16.7741 29.8653 18.7383 29.8653 20.9077Z" fill="black" stroke="url(#paint16_linear_4054_309)" stroke-width="0.636957" stroke-miterlimit="10"/>
<path opacity="0.97" d="M28.1351 14.6599C28.7517 15.1875 29.2636 15.8459 29.5711 16.5907C29.8528 17.273 30.0197 17.9835 30.0851 18.7076C30.1505 19.4317 30.1868 20.1406 30.1804 20.9366C30.1746 22.0129 30.0342 23.0472 29.7449 24.005C29.4095 25.1149 28.8948 26.157 28.0461 26.9915C27.6325 27.3982 27.1649 27.7436 26.6658 28.0242C26.1789 28.2975 25.6622 28.5106 25.1355 28.6555C24.152 28.9261 23.0936 29.0391 21.9721 28.9962C21.0845 28.9624 20.2168 28.8382 19.3993 28.6462C18.7655 28.4946 18.1636 28.3188 17.6037 28.0765C16.9887 27.809 16.4148 27.4788 15.8754 27.0694C15.2833 26.6199 14.7568 25.971 14.4432 25.2678C14.1815 24.6794 14.0376 24.0795 13.9546 23.4602C13.8444 22.638 13.7935 21.8213 13.8133 20.887C13.8331 19.9526 13.9299 19.081 14.1168 18.2505C14.3197 17.3482 14.5716 16.5073 15.0877 15.7255C15.3129 15.3862 15.591 15.0731 15.8952 14.8036C16.7713 14.029 17.8042 13.5824 18.9102 13.2746C19.8891 13.0023 20.9383 12.8254 22.0217 12.7869C22.9663 12.7531 23.874 12.8414 24.7334 13.0274C26.0574 13.3138 27.1569 13.8227 28.1354 14.6599H28.1351Z" stroke="url(#paint17_linear_4054_309)" stroke-width="0.636957" stroke-miterlimit="10"/>
<path opacity="0.95" d="M28.7151 13.9666C29.4459 14.5158 30.0316 15.2595 30.2928 16.1235C30.5291 16.905 30.6032 17.7006 30.5649 18.4843C30.5269 19.2685 30.5155 20.056 30.5042 20.9648C30.4899 22.1168 30.3985 23.2283 30.1611 24.2641C29.8882 25.4551 29.4679 26.6164 28.5364 27.5192C28.0854 27.9569 27.5642 28.3094 27.0115 28.5766C26.4718 28.837 25.9024 29.0186 25.3379 29.112C24.276 29.2878 23.1498 29.3139 21.9435 29.228C20.9891 29.1603 20.0447 29.0406 19.1539 28.8873C18.4676 28.7691 17.817 28.6639 17.2119 28.4847C16.5486 28.286 15.9169 28.033 15.3056 27.6754C14.6055 27.266 13.9818 26.5203 13.7018 25.7176C13.4682 25.045 13.4186 24.3812 13.4226 23.7118C13.4281 22.7908 13.4415 21.9343 13.482 20.866C13.5196 19.8757 13.5839 18.9066 13.7121 18.0045C13.8494 17.0374 13.9462 16.1302 14.462 15.2546C14.6865 14.8767 14.9956 14.5349 15.3383 14.2612C16.3272 13.4735 17.4763 13.1882 18.6628 12.9672C19.7414 12.7665 20.8789 12.5987 22.0429 12.5218C23.0592 12.4541 24.0376 12.4855 24.9698 12.5976C26.4563 12.7763 27.6132 13.1386 28.7149 13.9666H28.7151Z" stroke="url(#paint18_linear_4054_309)" stroke-width="0.636957" stroke-miterlimit="10"/>
<path opacity="0.92" d="M29.2863 13.2733C30.1332 13.8425 30.7917 14.6726 31.0057 15.6566C31.1973 16.5366 31.1755 17.4185 31.0362 18.2612C30.8936 19.1237 30.8368 19.9715 30.8197 20.9931C30.799 22.2208 30.7538 23.4093 30.5691 24.5235C30.3584 25.7952 30.0331 27.076 29.0188 28.0471C28.5301 28.5156 27.9556 28.8754 27.3492 29.1293C26.7569 29.3765 26.1345 29.5263 25.5323 29.5685C24.3916 29.6487 23.198 29.5883 21.9069 29.4597C20.8858 29.3583 19.8651 29.241 18.9004 29.1282C18.1621 29.0418 17.462 29.01 16.812 28.8925C16.1 28.7639 15.4077 28.589 14.7277 28.281C13.9163 27.9136 13.1987 27.0694 12.9521 26.1668C12.7465 25.4098 12.7944 24.6812 12.8825 23.9625C13.0075 22.9413 13.081 22.0463 13.1428 20.8443C13.1978 19.7795 13.2307 18.7321 13.2993 17.7581C13.3718 16.7267 13.3104 15.7516 13.828 14.7834C14.0507 14.3666 14.3919 13.9965 14.7728 13.7186C15.8743 12.9177 17.1411 12.7962 18.4069 12.6598C19.5862 12.5328 20.8108 12.3721 22.0558 12.2566C23.144 12.1549 24.194 12.1271 25.1979 12.1681C26.8485 12.2355 28.064 12.452 29.2863 13.2736V13.2733Z" stroke="url(#paint19_linear_4054_309)" stroke-width="0.636957" stroke-miterlimit="10"/>
<path opacity="0.89" d="M29.8571 12.5805C30.8215 13.1681 31.5519 14.0858 31.7183 15.19C31.8659 16.1684 31.7455 17.1371 31.5069 18.0385C31.2581 18.9791 31.158 19.8875 31.1346 21.0219C31.1077 22.3252 31.1084 23.5905 30.9766 24.783C30.8273 26.1355 30.5975 27.5358 29.5006 28.5752C28.9744 29.0746 28.3464 29.4415 27.6864 29.6819C27.0413 29.9162 26.3657 30.0334 25.7262 30.0252C24.5065 30.0092 23.2457 29.8632 21.8699 29.6917C20.7819 29.5564 19.6851 29.4413 18.6466 29.3694C17.8564 29.3147 17.1072 29.3552 16.4118 29.3009C15.6514 29.2415 14.8962 29.148 14.1494 28.8872C13.2248 28.5646 12.4155 27.6188 12.2023 26.6168C12.0247 25.7755 12.1725 24.9817 12.3423 24.2142C12.5902 23.0927 12.7194 22.1594 12.8036 20.8234C12.8752 19.6841 12.8781 18.5586 12.8863 17.5125C12.8946 16.4664 12.6765 15.3749 13.1939 14.3128C13.4157 13.8575 13.788 13.459 14.2075 13.1766C15.4218 12.3626 16.8068 12.4069 18.1508 12.3528C19.4949 12.2987 20.7428 12.1459 22.0686 11.9919C23.2286 11.8564 24.3505 11.7667 25.4258 11.7386C27.2414 11.6915 28.5164 11.7633 29.8573 12.5805H29.8571Z" stroke="url(#paint20_linear_4054_309)" stroke-width="0.636957" stroke-miterlimit="10"/>
<path opacity="0.87" d="M30.4365 11.888C31.5191 12.493 32.3213 13.4995 32.4394 14.7236C32.5434 15.8004 32.3226 16.8551 31.9862 17.8158C31.6297 18.8341 31.4877 19.8031 31.4579 21.0506C31.4249 22.4296 31.4706 23.7714 31.3925 25.0427C31.3041 26.4755 31.1702 27.9956 29.9906 29.1035C29.4269 29.6336 28.7451 30.0079 28.0317 30.2348C27.3338 30.456 26.6051 30.5408 25.9282 30.4821C24.6293 30.3692 23.3015 30.138 21.8406 29.9238C20.6862 29.7546 19.513 29.6416 18.4006 29.6109C17.5584 29.5875 16.76 29.7006 16.0192 29.7092C15.2105 29.7188 14.3916 29.7092 13.5787 29.4936C12.54 29.2181 11.6397 28.1687 11.4601 27.067C11.3106 26.1413 11.56 25.283 11.8095 24.4661C12.1824 23.2449 12.3651 22.2729 12.4717 20.8029C12.5596 19.5893 12.5336 18.3854 12.481 17.267C12.4285 16.1486 12.05 14.9984 12.5674 13.8426C12.7883 13.3488 13.1918 12.9216 13.6495 12.635C14.9764 11.8076 16.4825 11.9594 17.9024 12.0462C19.2827 12.1305 20.6824 11.92 22.089 11.7275C23.3206 11.5582 24.5149 11.4051 25.6611 11.3098C27.6416 11.1452 28.9776 11.0733 30.4361 11.8882L30.4365 11.888Z" stroke="url(#paint21_linear_4054_309)" stroke-width="0.636957" stroke-miterlimit="10"/>
<path opacity="0.84" d="M31.0115 11.1946C32.2129 11.8157 33.0868 12.9122 33.1564 14.2565C33.2172 15.4317 32.895 16.5721 32.4615 17.5926C31.9962 18.6879 31.8137 19.7186 31.7774 21.0787C31.7387 22.5335 31.8291 23.9519 31.8044 25.3017C31.7768 26.8151 31.7392 28.4549 30.4768 29.6311C29.8755 30.1921 29.1403 30.5735 28.3733 30.7872C27.6227 30.9952 26.841 31.0473 26.1267 30.9385C24.7488 30.7284 23.354 30.4126 21.8081 30.1554C20.5869 29.9525 19.3377 29.8412 18.1512 29.8519C17.2571 29.8599 16.4095 30.0455 15.6233 30.1174C14.7664 30.1957 13.8836 30.2718 13.0049 30.0996C11.8515 29.8735 10.8606 28.7179 10.7144 27.5165C10.5929 26.5065 10.945 25.5843 11.2734 24.7171C11.7734 23.3971 12.0069 22.3851 12.1366 20.7814C12.2407 19.4932 12.1864 18.2112 12.0723 17.0207C11.955 15.7973 11.4205 14.6212 11.9376 13.3713C12.1579 12.839 12.5923 12.3831 13.0885 12.0923C14.5283 11.2518 16.1502 11.6332 17.6509 11.7387C19.1354 11.8428 20.6188 11.6933 22.1063 11.4623C23.4099 11.2591 24.676 11.0415 25.8937 10.8799C28.0386 10.5956 29.4369 10.3806 31.0117 11.1946H31.0115Z" stroke="url(#paint22_linear_4054_309)" stroke-width="0.636957" stroke-miterlimit="10"/>
<path opacity="0.81" d="M31.584 10.5018C32.9047 11.1378 33.8502 12.3257 33.8707 13.7901C33.8885 15.0636 33.4639 16.2892 32.9338 17.37C32.3593 18.5419 32.1368 19.6347 32.094 21.1076C32.0495 22.6381 32.1842 24.1332 32.2135 25.5616C32.2465 27.1555 32.3052 28.915 30.9603 30.1596C30.3214 30.7513 29.5328 31.1401 28.7121 31.3403C27.9088 31.5355 27.0739 31.5544 26.3222 31.3955C24.8656 31.0878 23.4034 30.6877 21.7727 30.3877C20.4847 30.1509 19.1592 30.0415 17.899 30.0933C16.9528 30.1325 16.0561 30.3908 15.2247 30.5259C14.3195 30.673 13.3731 30.8361 12.4283 30.7059C11.1603 30.5312 10.0789 29.2677 9.96625 27.9666C9.87279 26.8723 10.3281 25.8867 10.7349 24.969C11.3628 23.5513 11.6461 22.4983 11.7987 20.7609C11.9187 19.3981 11.837 18.0378 11.661 16.7755C11.4814 15.4879 10.7885 14.2449 11.3052 12.9011C11.5246 12.3305 11.9901 11.8457 12.5246 11.5506C14.0769 10.697 15.8173 11.2489 17.3963 11.432C18.982 11.616 20.5522 11.4672 22.1205 11.1979C23.4959 10.9609 24.8335 10.6776 26.123 10.4511C28.432 10.0455 29.8933 9.68785 31.5845 10.5023L31.584 10.5018Z" stroke="url(#paint23_linear_4054_309)" stroke-width="0.636957" stroke-miterlimit="10"/>
<path opacity="0.79" d="M32.1636 9.80951C33.6037 10.4597 34.6207 11.7397 34.592 13.3238C34.5671 14.6959 34.0394 16.0059 33.4135 17.1477C32.7292 18.3956 32.4673 19.5509 32.4179 21.1366C32.3678 22.7428 32.5463 24.3145 32.63 25.8214C32.723 27.4959 32.8785 29.3751 31.4508 30.688C30.7746 31.3107 29.9323 31.7065 29.0582 31.8932C28.2022 32.0753 27.3143 32.061 26.525 31.8525C24.9896 31.4466 23.46 30.9629 21.7446 30.6197C20.3898 30.3491 18.9881 30.241 17.6541 30.3347C16.6561 30.4048 15.7097 30.7343 14.8334 30.9341C13.8797 31.1482 12.8699 31.401 11.8587 31.312C10.4766 31.1903 9.30435 29.8171 9.22491 28.4163C9.15949 27.2376 9.71869 26.1893 10.2029 25.2204C10.9599 23.7059 11.2915 22.6111 11.4677 20.7397C11.6032 19.3024 11.4947 17.8638 11.2563 16.5293C11.0149 15.1775 10.1657 13.8688 10.6793 12.4302C10.8992 11.8216 11.3945 11.3075 11.9675 11.0082C13.6327 10.1415 15.4907 10.8645 17.1488 11.1246C18.8357 11.3892 20.4924 11.2406 22.1415 10.9328C23.5886 10.6618 24.9976 10.3124 26.3593 10.0216C28.8315 9.49307 30.3567 8.99329 32.1638 9.80928L32.1636 9.80951Z" stroke="url(#paint24_linear_4054_309)" stroke-width="0.636957" stroke-miterlimit="10"/>
<path opacity="0.76" d="M32.7392 9.11581C34.2989 9.77937 35.3877 11.1523 35.3094 12.8564C35.2417 14.3271 34.6111 15.7212 33.889 16.9239C33.0946 18.2473 32.7968 19.4658 32.7374 21.1644C32.6847 22.8464 32.9039 24.4947 33.0421 26.0801C33.1949 27.8352 33.4475 29.8341 31.9372 31.2153C31.2234 31.8687 30.3277 32.2719 29.4 32.4452C28.4912 32.6143 27.5504 32.5667 26.7235 32.3084C25.1095 31.8043 23.5122 31.2367 21.712 30.8508C20.2905 30.5464 18.8125 30.4396 17.4046 30.5751C16.3545 30.6762 15.359 31.0785 14.4375 31.3417C13.4352 31.6245 12.3625 31.9661 11.2848 31.9174C9.78875 31.8497 8.52526 30.366 8.47942 28.8655C8.44203 27.6024 9.10515 26.492 9.66703 25.4711C10.5536 23.8605 10.9327 22.7229 11.1328 20.718C11.2837 19.2059 11.1486 17.689 10.848 16.2829C10.5449 14.8667 9.53663 13.4913 10.0498 11.9588C10.269 11.3117 10.7952 10.7689 11.4065 10.4654C13.1842 9.58556 15.16 10.4803 16.8973 10.8168C18.6345 11.1532 20.429 11.0135 22.1589 10.6675C23.6778 10.3626 25.1576 9.94649 26.5915 9.59156C29.2264 8.93935 30.8164 8.29759 32.7394 9.11559L32.7392 9.11581Z" stroke="url(#paint25_linear_4054_309)" stroke-width="0.636957" stroke-miterlimit="10"/>
<path opacity="0.73" d="M33.3116 8.42308C34.991 9.09933 36.1514 10.566 36.0235 12.39C35.9133 13.9593 35.1792 15.437 34.3612 16.7014C33.4567 18.1 33.1198 19.3819 33.0539 21.1933C32.9954 22.951 33.2582 24.6762 33.4509 26.34C33.6634 28.1759 34.0134 30.2943 32.4201 31.7438C31.6687 32.4281 30.7196 32.8384 29.7383 32.9984C28.7768 33.1544 27.7832 33.0734 26.9185 32.7656C25.2262 32.1633 23.5612 31.5122 21.676 31.0834C20.1878 30.7451 18.6337 30.6396 17.1519 30.817C16.0497 30.949 15.005 31.4243 14.0381 31.7507C12.9873 32.1023 11.852 32.5331 10.7074 32.5242C9.09806 32.5117 7.74267 30.9162 7.73043 29.3161C7.72109 27.9687 8.48835 26.7964 9.12766 25.7234C10.1439 24.0173 10.5701 22.8366 10.7944 20.6977C10.9606 19.1111 10.7995 17.5156 10.4359 16.0378C10.0716 14.5572 8.90358 13.1152 9.41672 11.489C9.63501 10.8034 10.1924 10.232 10.8422 9.92422C12.7328 9.03123 14.8254 10.0985 16.6423 10.5108C18.5302 10.9392 20.3618 10.7883 22.1727 10.4038C23.7635 10.0651 25.3138 9.58198 26.8205 9.16341C29.6174 8.38636 31.2728 7.60285 33.3116 8.42397V8.42308Z" stroke="url(#paint26_linear_4054_309)" stroke-width="0.636957" stroke-miterlimit="10"/>
<path opacity="0.7" d="M33.8865 7.72939C35.6858 8.41788 36.9177 9.97866 36.7401 11.9224C36.5877 13.5902 35.7497 15.1515 34.8362 16.4777C33.8213 17.951 33.4454 19.2966 33.3731 21.221C33.3088 23.0544 33.6152 24.8564 33.8627 26.5985C34.1348 28.5151 34.5821 30.753 32.9063 32.2709C32.1174 32.9859 31.1145 33.4035 30.0798 33.5502C29.0655 33.6933 28.0192 33.5787 27.1166 33.2213C25.346 32.5203 23.6132 31.7858 21.6432 31.3143C20.0882 30.9422 18.4578 30.8378 16.9023 31.0572C15.7481 31.2199 14.6542 31.7684 13.6421 32.1578C12.5431 32.5782 11.3452 33.0987 10.1334 33.1292C8.41104 33.1726 6.96352 31.4645 6.98466 29.7646C7.00336 28.3329 7.87498 27.099 8.59129 25.9737C9.73773 24.1726 10.2106 22.948 10.4589 20.6754C10.6405 19.014 10.4536 17.34 10.0268 15.7905C9.60132 14.2451 8.27375 12.7368 8.78644 11.0167C9.00407 10.2929 9.59242 9.69249 10.2805 9.38051C12.2836 8.4744 14.4933 9.71452 16.3901 10.2021C18.3779 10.713 20.2976 10.5603 22.1893 10.1373C23.8518 9.76481 25.4724 9.21429 27.0523 8.7323C30.0108 7.82997 31.732 6.90494 33.8867 7.72917L33.8865 7.72939Z" stroke="url(#paint27_linear_4054_309)" stroke-width="0.636957" stroke-miterlimit="10"/>
<path opacity="0.68" d="M34.4579 7.03732C36.377 7.73738 37.6807 9.39318 37.4533 11.4566C37.2586 13.2233 36.3169 14.8675 35.3075 16.2558C34.1822 17.8039 33.7677 19.2134 33.6884 21.2504C33.6181 23.1596 33.9684 25.0384 34.2706 26.8589C34.6021 28.8565 35.1469 31.2137 33.3885 32.7998C32.562 33.5457 31.5057 33.9705 30.4173 34.1036C29.3503 34.2335 28.2515 34.0856 27.3109 33.6786C25.4622 32.8788 23.6613 32.0613 21.6065 31.5468C19.9847 31.1409 18.2775 31.035 16.6487 31.2989C15.4421 31.4903 14.2993 32.1138 13.242 32.5666C12.0945 33.0557 10.8348 33.6663 9.55527 33.736C7.72033 33.8357 6.18047 32.0147 6.23499 30.2152C6.28172 28.6991 7.25771 27.404 8.05123 26.2258C9.32785 24.3303 9.847 23.0613 10.1196 20.6551C10.3163 18.9192 10.1038 17.1662 9.61401 15.5455C9.12735 13.9353 7.64022 12.3608 8.15248 10.547C8.36921 9.7846 8.98872 9.15552 9.71526 8.83932C11.8312 7.92007 14.1571 9.33332 16.1342 9.89586C18.2215 10.49 20.2297 10.3349 22.2022 9.87339C23.9365 9.46683 25.6271 8.84889 27.2802 8.30393C30.3995 7.27564 32.1873 6.20908 34.4577 7.03732H34.4579Z" stroke="url(#paint28_linear_4054_309)" stroke-width="0.636957" stroke-miterlimit="10"/>
<path opacity="0.65" d="M35.0343 6.34453C37.0733 7.05594 38.4525 8.80743 38.1714 10.9899C37.9375 12.8558 36.8888 14.5824 35.7839 16.0328C34.548 17.6552 34.0948 19.129 34.0091 21.2788C33.933 23.2637 34.3231 25.2201 34.6836 27.1183C35.071 29.1973 35.717 31.6731 33.8756 33.3278C33.0115 34.1044 31.9018 34.5365 30.7598 34.6563C29.6401 34.7733 28.4885 34.5915 27.5101 34.1353C25.5835 33.237 23.7142 32.336 21.5747 31.7788C19.8862 31.3391 18.1026 31.2347 16.4001 31.5403C15.1415 31.7628 13.9495 32.4591 12.8471 32.9751C11.6512 33.533 10.3297 34.2339 8.98228 34.3423C7.03519 34.4989 5.40231 32.5643 5.49021 30.6653C5.56498 29.0649 6.64533 27.7088 7.51607 26.4776C8.92286 24.488 9.48384 23.1736 9.78536 20.6344C9.99409 18.8235 9.75933 16.9919 9.20613 15.3C8.65294 13.6082 7.0116 11.9844 7.52341 10.0765C7.73948 9.27562 8.38992 8.61784 9.15473 8.2974C11.3833 7.3648 13.8255 8.95162 15.8832 9.58893C18.0697 10.2663 20.1666 10.1087 22.22 9.60874C24.0262 9.16836 25.7864 8.48254 27.5132 7.87461C30.7932 6.71993 32.6477 5.51185 35.034 6.34453H35.0343Z" stroke="url(#paint29_linear_4054_309)" stroke-width="0.636957" stroke-miterlimit="10"/>
<path opacity="0.62" d="M35.609 5.65072C37.7679 6.37303 39.2176 8.2202 38.8879 10.5224C38.6108 12.4869 37.459 14.2962 36.2585 15.8092C34.9122 17.5057 34.42 19.044 34.3279 21.3066C34.246 23.3672 34.6804 25.4006 35.0949 27.3771C35.5427 29.5371 36.2852 32.1322 34.3613 33.8552C33.4598 34.6627 32.2965 35.102 31.1011 35.2084C29.9286 35.3123 28.7252 35.0958 27.708 34.5913C25.7049 33.5915 23.7662 32.6102 21.5417 32.01C19.7864 31.5365 17.9265 31.4339 16.1504 31.7808C14.8397 32.0345 13.5985 32.8035 12.4509 33.3825C11.2065 34.0092 9.82378 34.8005 8.40809 34.9476C6.34929 35.1614 4.62295 33.1131 4.74445 31.1141C4.84726 29.4294 6.03197 28.0124 6.9797 26.7282C8.5169 24.6449 9.12528 23.2855 9.44994 20.6126C9.67469 18.7269 9.41701 16.815 8.79728 15.0532C8.19224 13.3118 6.382 11.6066 6.89359 9.60475C7.10899 8.76539 7.79058 8.07912 8.59367 7.75424C10.9351 6.80851 13.493 8.56868 15.6317 9.28098C17.9172 10.042 20.1031 9.88157 22.2371 9.34306C24.1149 8.86886 25.9448 8.11517 27.7454 7.44448C31.1854 6.16319 33.1071 4.81358 35.6094 5.65072H35.609Z" stroke="url(#paint30_linear_4054_309)" stroke-width="0.636957" stroke-miterlimit="10"/>
<path opacity="0.6" d="M36.1878 4.95792C38.4665 5.69091 39.987 7.634 39.6085 10.0559C39.288 12.1192 38.0314 14.0093 36.7372 15.5866C35.2781 17.3552 34.7494 18.96 34.6506 21.3355C34.5627 23.4719 35.0418 25.5821 35.5102 27.6367C36.0185 29.8775 36.8574 32.5921 34.8507 34.3834C33.9116 35.2216 32.6949 35.6682 31.4458 35.7612C30.2206 35.8523 28.9645 35.6026 27.9095 35.0483C25.828 33.951 23.8215 32.8851 21.5121 32.2422C19.6901 31.7349 17.7539 31.6339 15.9039 32.0224C14.5411 32.3075 13.2507 33.1488 12.0578 33.7912C10.7651 34.4869 9.32094 35.3685 7.83693 35.5541C5.66665 35.8256 3.84663 33.6628 4.00173 31.5644C4.13257 29.7952 5.42432 28.3198 6.4466 26.98C8.11842 24.8066 8.76975 23.3985 9.11778 20.5918C9.35855 18.6316 9.07305 16.6411 8.39146 14.8077C7.72389 13.0017 5.75522 11.23 6.26658 9.13447C6.48109 8.25662 7.19383 7.54165 8.0352 7.21253C10.4892 6.25368 13.1613 8.19186 15.3825 8.97426C17.7651 9.82363 20.0417 9.65562 22.2567 9.07862C24.2065 8.5706 26.1041 7.74526 27.9802 7.01538C31.5773 5.60035 33.5692 4.11611 36.1876 4.95814L36.1878 4.95792Z" stroke="url(#paint31_linear_4054_309)" stroke-width="0.636957" stroke-miterlimit="10"/>
<path opacity="0.57" d="M31.7836 36.314C33.0862 36.2346 34.3566 35.7806 35.333 34.9117C37.4223 33.052 36.4868 30.2182 35.9183 27.8964C35.3958 25.7635 34.8724 23.5763 34.9661 21.3642C35.0716 18.8759 35.6412 17.2083 37.2085 15.3638C38.6004 13.7256 39.9577 11.7514 40.3214 9.58932C40.7488 7.04765 39.1576 5.00844 36.759 4.26521C34.0246 3.41806 31.9676 5.0505 28.2085 6.58591C24.0466 8.28577 19.7957 10.4138 15.1267 8.66696C12.8254 7.80579 10.0365 5.69827 7.46992 6.67025C6.59006 7.00337 5.84639 7.74727 5.63254 8.6634C5.12163 10.8528 7.24851 12.6909 7.97861 14.5616C8.72207 16.4664 9.03516 18.5359 8.77836 20.5707C8.40719 23.5111 7.70446 24.9613 5.90625 27.2312C4.80409 28.6225 3.41064 30.1603 3.25176 32.0139C3.0635 34.212 4.97721 36.4891 7.25875 36.16C8.81152 35.9359 10.3164 34.9635 11.6576 34.1994C12.8957 33.4937 14.2351 32.5796 15.6501 32.2636C17.5738 31.8337 19.5863 31.9332 21.4751 32.4744C23.8693 33.1602 25.9436 34.3104 28.1035 35.5054C29.196 36.1097 30.5049 36.3923 31.7829 36.3144L31.7836 36.314Z" stroke="url(#paint32_linear_4054_309)" stroke-width="0.636957" stroke-miterlimit="10"/>
<path d="M20.8962 18.208C21.4131 18.208 21.3281 19.9447 22.1414 20.7606C22.9565 21.5747 24.6914 21.4897 24.6914 22.0071C24.6914 22.5245 22.9565 22.4395 22.1414 23.2536C21.3281 24.0695 21.4131 25.8062 20.8962 25.8062C20.3793 25.8062 20.4642 24.0695 19.651 23.2536C18.8359 22.4395 17.101 22.5245 17.101 22.0071C17.101 21.4897 18.8359 21.5747 19.651 20.7606C20.4642 19.9447 20.3793 18.208 20.8962 18.208Z" fill="white"/>
<path d="M24.6917 15.979C24.9953 15.979 24.9453 16.9979 25.423 17.4766C25.9017 17.9542 26.9205 17.9043 26.9205 18.2079C26.9205 18.5114 25.9016 18.4615 25.423 18.9391C24.9453 19.4178 24.9952 20.4367 24.6917 20.4367C24.3882 20.4367 24.438 19.4178 23.9604 18.9391C23.4817 18.4615 22.4628 18.5114 22.4628 18.2079C22.4628 17.9043 23.4818 17.9542 23.9604 17.4766C24.438 16.9979 24.3882 15.979 24.6917 15.979Z" fill="white"/>
<defs>
<linearGradient id="paint0_linear_4054_309" x1="0.670213" y1="20.7834" x2="41.7096" y2="20.7834" gradientUnits="userSpaceOnUse">
<stop stop-color="#25F4EE"/>
<stop offset="0.08" stop-color="#5EBEC5"/>
<stop offset="0.26" stop-color="#EF395F"/>
<stop offset="0.28" stop-color="#FE2C55"/>
<stop offset="0.51" stop-color="#25F4EE"/>
<stop offset="0.53" stop-color="#29EFEA"/>
<stop offset="0.56" stop-color="#36E3E1"/>
<stop offset="0.58" stop-color="#4CCFD1"/>
<stop offset="0.61" stop-color="#6BB2BC"/>
<stop offset="0.63" stop-color="#938EA0"/>
<stop offset="0.66" stop-color="#C3617E"/>
<stop offset="0.69" stop-color="#FE2C55"/>
<stop offset="0.72" stop-color="#F83058"/>
<stop offset="0.76" stop-color="#E73E62"/>
<stop offset="0.8" stop-color="#CB5473"/>
<stop offset="0.85" stop-color="#A5738A"/>
<stop offset="0.9" stop-color="#739AA8"/>
<stop offset="0.95" stop-color="#38CACC"/>
<stop offset="1" stop-color="#00F7EF"/>
</linearGradient>
<linearGradient id="paint1_linear_4054_309" x1="1.51086" y1="20.7882" x2="40.9744" y2="20.7882" gradientUnits="userSpaceOnUse">
<stop stop-color="#25F4EE"/>
<stop offset="0.08" stop-color="#5EBEC5"/>
<stop offset="0.26" stop-color="#EF395F"/>
<stop offset="0.28" stop-color="#FE2C55"/>
<stop offset="0.51" stop-color="#25F4EE"/>
<stop offset="0.53" stop-color="#29EFEA"/>
<stop offset="0.56" stop-color="#36E3E1"/>
<stop offset="0.58" stop-color="#4CCFD1"/>
<stop offset="0.61" stop-color="#6BB2BC"/>
<stop offset="0.63" stop-color="#938EA0"/>
<stop offset="0.66" stop-color="#C3617E"/>
<stop offset="0.69" stop-color="#FE2C55"/>
<stop offset="0.72" stop-color="#F83058"/>
<stop offset="0.76" stop-color="#E73E62"/>
<stop offset="0.8" stop-color="#CB5473"/>
<stop offset="0.85" stop-color="#A5738A"/>
<stop offset="0.9" stop-color="#739AA8"/>
<stop offset="0.95" stop-color="#38CACC"/>
<stop offset="1" stop-color="#00F7EF"/>
</linearGradient>
<linearGradient id="paint2_linear_4054_309" x1="2.35296" y1="20.7929" x2="40.2408" y2="20.7929" gradientUnits="userSpaceOnUse">
<stop stop-color="#25F4EE"/>
<stop offset="0.08" stop-color="#5EBEC5"/>
<stop offset="0.26" stop-color="#EF395F"/>
<stop offset="0.28" stop-color="#FE2C55"/>
<stop offset="0.51" stop-color="#25F4EE"/>
<stop offset="0.53" stop-color="#29EFEA"/>
<stop offset="0.56" stop-color="#36E3E1"/>
<stop offset="0.58" stop-color="#4CCFD1"/>
<stop offset="0.61" stop-color="#6BB2BC"/>
<stop offset="0.63" stop-color="#938EA0"/>
<stop offset="0.66" stop-color="#C3617E"/>
<stop offset="0.69" stop-color="#FE2C55"/>
<stop offset="0.72" stop-color="#F83058"/>
<stop offset="0.76" stop-color="#E73E62"/>
<stop offset="0.8" stop-color="#CB5473"/>
<stop offset="0.85" stop-color="#A5738A"/>
<stop offset="0.9" stop-color="#739AA8"/>
<stop offset="0.95" stop-color="#38CACC"/>
<stop offset="1" stop-color="#00F7EF"/>
</linearGradient>
<linearGradient id="paint3_linear_4054_309" x1="3.19749" y1="20.7983" x2="39.5096" y2="20.7983" gradientUnits="userSpaceOnUse">
<stop stop-color="#25F4EE"/>
<stop offset="0.08" stop-color="#5EBEC5"/>
<stop offset="0.26" stop-color="#EF395F"/>
<stop offset="0.28" stop-color="#FE2C55"/>
<stop offset="0.51" stop-color="#25F4EE"/>
<stop offset="0.53" stop-color="#29EFEA"/>
<stop offset="0.56" stop-color="#36E3E1"/>
<stop offset="0.58" stop-color="#4CCFD1"/>
<stop offset="0.61" stop-color="#6BB2BC"/>
<stop offset="0.63" stop-color="#938EA0"/>
<stop offset="0.66" stop-color="#C3617E"/>
<stop offset="0.69" stop-color="#FE2C55"/>
<stop offset="0.72" stop-color="#F83058"/>
<stop offset="0.76" stop-color="#E73E62"/>
<stop offset="0.8" stop-color="#CB5473"/>
<stop offset="0.85" stop-color="#A5738A"/>
<stop offset="0.9" stop-color="#739AA8"/>
<stop offset="0.95" stop-color="#38CACC"/>
<stop offset="1" stop-color="#00F7EF"/>
</linearGradient>
<linearGradient id="paint4_linear_4054_309" x1="4.04171" y1="20.8027" x2="38.7781" y2="20.8027" gradientUnits="userSpaceOnUse">
<stop stop-color="#25F4EE"/>
<stop offset="0.08" stop-color="#5EBEC5"/>
<stop offset="0.26" stop-color="#EF395F"/>
<stop offset="0.28" stop-color="#FE2C55"/>
<stop offset="0.51" stop-color="#25F4EE"/>
<stop offset="0.53" stop-color="#29EFEA"/>
<stop offset="0.56" stop-color="#36E3E1"/>
<stop offset="0.58" stop-color="#4CCFD1"/>
<stop offset="0.61" stop-color="#6BB2BC"/>
<stop offset="0.63" stop-color="#938EA0"/>
<stop offset="0.66" stop-color="#C3617E"/>
<stop offset="0.69" stop-color="#FE2C55"/>
<stop offset="0.72" stop-color="#F83058"/>
<stop offset="0.76" stop-color="#E73E62"/>
<stop offset="0.8" stop-color="#CB5473"/>
<stop offset="0.85" stop-color="#A5738A"/>
<stop offset="0.9" stop-color="#739AA8"/>
<stop offset="0.95" stop-color="#38CACC"/>
<stop offset="1" stop-color="#00F7EF"/>
</linearGradient>
<linearGradient id="paint5_linear_4054_309" x1="4.87838" y1="20.8084" x2="38.0409" y2="20.8084" gradientUnits="userSpaceOnUse">
<stop stop-color="#25F4EE"/>
<stop offset="0.08" stop-color="#5EBEC5"/>
<stop offset="0.26" stop-color="#EF395F"/>
<stop offset="0.28" stop-color="#FE2C55"/>
<stop offset="0.51" stop-color="#25F4EE"/>
<stop offset="0.53" stop-color="#29EFEA"/>
<stop offset="0.56" stop-color="#36E3E1"/>
<stop offset="0.58" stop-color="#4CCFD1"/>
<stop offset="0.61" stop-color="#6BB2BC"/>
<stop offset="0.63" stop-color="#938EA0"/>
<stop offset="0.66" stop-color="#C3617E"/>
<stop offset="0.69" stop-color="#FE2C55"/>
<stop offset="0.72" stop-color="#F83058"/>
<stop offset="0.76" stop-color="#E73E62"/>
<stop offset="0.8" stop-color="#CB5473"/>
<stop offset="0.85" stop-color="#A5738A"/>
<stop offset="0.9" stop-color="#739AA8"/>
<stop offset="0.95" stop-color="#38CACC"/>
<stop offset="1" stop-color="#00F7EF"/>
</linearGradient>
<linearGradient id="paint6_linear_4054_309" x1="5.71924" y1="20.8137" x2="37.3065" y2="20.8137" gradientUnits="userSpaceOnUse">
<stop stop-color="#25F4EE"/>
<stop offset="0.08" stop-color="#5EBEC5"/>
<stop offset="0.26" stop-color="#EF395F"/>
<stop offset="0.28" stop-color="#FE2C55"/>
<stop offset="0.51" stop-color="#25F4EE"/>
<stop offset="0.53" stop-color="#29EFEA"/>
<stop offset="0.56" stop-color="#36E3E1"/>
<stop offset="0.58" stop-color="#4CCFD1"/>
<stop offset="0.61" stop-color="#6BB2BC"/>
<stop offset="0.63" stop-color="#938EA0"/>
<stop offset="0.66" stop-color="#C3617E"/>
<stop offset="0.69" stop-color="#FE2C55"/>
<stop offset="0.72" stop-color="#F83058"/>
<stop offset="0.76" stop-color="#E73E62"/>
<stop offset="0.8" stop-color="#CB5473"/>
<stop offset="0.85" stop-color="#A5738A"/>
<stop offset="0.9" stop-color="#739AA8"/>
<stop offset="0.95" stop-color="#38CACC"/>
<stop offset="1" stop-color="#00F7EF"/>
</linearGradient>
<linearGradient id="paint7_linear_4054_309" x1="6.56063" y1="20.8193" x2="36.5727" y2="20.8193" gradientUnits="userSpaceOnUse">
<stop stop-color="#25F4EE"/>
<stop offset="0.08" stop-color="#5EBEC5"/>
<stop offset="0.26" stop-color="#EF395F"/>
<stop offset="0.28" stop-color="#FE2C55"/>
<stop offset="0.51" stop-color="#25F4EE"/>
<stop offset="0.53" stop-color="#29EFEA"/>
<stop offset="0.56" stop-color="#36E3E1"/>
<stop offset="0.58" stop-color="#4CCFD1"/>
<stop offset="0.61" stop-color="#6BB2BC"/>
<stop offset="0.63" stop-color="#938EA0"/>
<stop offset="0.66" stop-color="#C3617E"/>
<stop offset="0.69" stop-color="#FE2C55"/>
<stop offset="0.72" stop-color="#F83058"/>
<stop offset="0.76" stop-color="#E73E62"/>
<stop offset="0.8" stop-color="#CB5473"/>
<stop offset="0.85" stop-color="#A5738A"/>
<stop offset="0.9" stop-color="#739AA8"/>
<stop offset="0.95" stop-color="#38CACC"/>
<stop offset="1" stop-color="#00F7EF"/>
</linearGradient>
<linearGradient id="paint8_linear_4054_309" x1="7.4029" y1="20.8255" x2="35.8399" y2="20.8255" gradientUnits="userSpaceOnUse">
<stop stop-color="#25F4EE"/>
<stop offset="0.08" stop-color="#5EBEC5"/>
<stop offset="0.26" stop-color="#EF395F"/>
<stop offset="0.28" stop-color="#FE2C55"/>
<stop offset="0.51" stop-color="#25F4EE"/>
<stop offset="0.53" stop-color="#29EFEA"/>
<stop offset="0.56" stop-color="#36E3E1"/>
<stop offset="0.58" stop-color="#4CCFD1"/>
<stop offset="0.61" stop-color="#6BB2BC"/>
<stop offset="0.63" stop-color="#938EA0"/>
<stop offset="0.66" stop-color="#C3617E"/>
<stop offset="0.69" stop-color="#FE2C55"/>
<stop offset="0.72" stop-color="#F83058"/>
<stop offset="0.76" stop-color="#E73E62"/>
<stop offset="0.8" stop-color="#CB5473"/>
<stop offset="0.85" stop-color="#A5738A"/>
<stop offset="0.9" stop-color="#739AA8"/>
<stop offset="0.95" stop-color="#38CACC"/>
<stop offset="1" stop-color="#00F7EF"/>
</linearGradient>
<linearGradient id="paint9_linear_4054_309" x1="8.24815" y1="20.8326" x2="35.1101" y2="20.8326" gradientUnits="userSpaceOnUse">
<stop stop-color="#25F4EE"/>
<stop offset="0.08" stop-color="#5EBEC5"/>
<stop offset="0.26" stop-color="#EF395F"/>
<stop offset="0.28" stop-color="#FE2C55"/>
<stop offset="0.51" stop-color="#25F4EE"/>
<stop offset="0.53" stop-color="#29EFEA"/>
<stop offset="0.56" stop-color="#36E3E1"/>
<stop offset="0.58" stop-color="#4CCFD1"/>
<stop offset="0.61" stop-color="#6BB2BC"/>
<stop offset="0.63" stop-color="#938EA0"/>
<stop offset="0.66" stop-color="#C3617E"/>
<stop offset="0.69" stop-color="#FE2C55"/>
<stop offset="0.72" stop-color="#F83058"/>
<stop offset="0.76" stop-color="#E73E62"/>
<stop offset="0.8" stop-color="#CB5473"/>
<stop offset="0.85" stop-color="#A5738A"/>
<stop offset="0.9" stop-color="#739AA8"/>
<stop offset="0.95" stop-color="#38CACC"/>
<stop offset="1" stop-color="#00F7EF"/>
</linearGradient>
<linearGradient id="paint10_linear_4054_309" x1="9.08762" y1="20.8391" x2="34.3748" y2="20.8391" gradientUnits="userSpaceOnUse">
<stop stop-color="#25F4EE"/>
<stop offset="0.08" stop-color="#5EBEC5"/>
<stop offset="0.26" stop-color="#EF395F"/>
<stop offset="0.28" stop-color="#FE2C55"/>
<stop offset="0.51" stop-color="#25F4EE"/>
<stop offset="0.53" stop-color="#29EFEA"/>
<stop offset="0.56" stop-color="#36E3E1"/>
<stop offset="0.58" stop-color="#4CCFD1"/>
<stop offset="0.61" stop-color="#6BB2BC"/>
<stop offset="0.63" stop-color="#938EA0"/>
<stop offset="0.66" stop-color="#C3617E"/>
<stop offset="0.69" stop-color="#FE2C55"/>
<stop offset="0.72" stop-color="#F83058"/>
<stop offset="0.76" stop-color="#E73E62"/>
<stop offset="0.8" stop-color="#CB5473"/>
<stop offset="0.85" stop-color="#A5738A"/>
<stop offset="0.9" stop-color="#739AA8"/>
<stop offset="0.95" stop-color="#38CACC"/>
<stop offset="1" stop-color="#00F7EF"/>
</linearGradient>
<linearGradient id="paint11_linear_4054_309" x1="9.9281" y1="20.8464" x2="33.6409" y2="20.8464" gradientUnits="userSpaceOnUse">
<stop stop-color="#25F4EE"/>
<stop offset="0.08" stop-color="#5EBEC5"/>
<stop offset="0.26" stop-color="#EF395F"/>
<stop offset="0.28" stop-color="#FE2C55"/>
<stop offset="0.51" stop-color="#25F4EE"/>
<stop offset="0.53" stop-color="#29EFEA"/>
<stop offset="0.56" stop-color="#36E3E1"/>
<stop offset="0.58" stop-color="#4CCFD1"/>
<stop offset="0.61" stop-color="#6BB2BC"/>
<stop offset="0.63" stop-color="#938EA0"/>
<stop offset="0.66" stop-color="#C3617E"/>
<stop offset="0.69" stop-color="#FE2C55"/>
<stop offset="0.72" stop-color="#F83058"/>
<stop offset="0.76" stop-color="#E73E62"/>
<stop offset="0.8" stop-color="#CB5473"/>
<stop offset="0.85" stop-color="#A5738A"/>
<stop offset="0.9" stop-color="#739AA8"/>
<stop offset="0.95" stop-color="#38CACC"/>
<stop offset="1" stop-color="#00F7EF"/>
</linearGradient>
<linearGradient id="paint12_linear_4054_309" x1="10.7712" y1="20.8556" x2="32.9097" y2="20.8556" gradientUnits="userSpaceOnUse">
<stop stop-color="#25F4EE"/>
<stop offset="0.08" stop-color="#5EBEC5"/>
<stop offset="0.26" stop-color="#EF395F"/>
<stop offset="0.28" stop-color="#FE2C55"/>
<stop offset="0.51" stop-color="#25F4EE"/>
<stop offset="0.53" stop-color="#29EFEA"/>
<stop offset="0.56" stop-color="#36E3E1"/>
<stop offset="0.58" stop-color="#4CCFD1"/>
<stop offset="0.61" stop-color="#6BB2BC"/>
<stop offset="0.63" stop-color="#938EA0"/>
<stop offset="0.66" stop-color="#C3617E"/>
<stop offset="0.69" stop-color="#FE2C55"/>
<stop offset="0.72" stop-color="#F83058"/>
<stop offset="0.76" stop-color="#E73E62"/>
<stop offset="0.8" stop-color="#CB5473"/>
<stop offset="0.85" stop-color="#A5738A"/>
<stop offset="0.9" stop-color="#739AA8"/>
<stop offset="0.95" stop-color="#38CACC"/>
<stop offset="1" stop-color="#00F7EF"/>
</linearGradient>
<linearGradient id="paint13_linear_4054_309" x1="11.6076" y1="20.866" x2="32.1726" y2="20.866" gradientUnits="userSpaceOnUse">
<stop stop-color="#25F4EE"/>
<stop offset="0.08" stop-color="#5EBEC5"/>
<stop offset="0.26" stop-color="#EF395F"/>
<stop offset="0.28" stop-color="#FE2C55"/>
<stop offset="0.51" stop-color="#25F4EE"/>
<stop offset="0.53" stop-color="#29EFEA"/>
<stop offset="0.56" stop-color="#36E3E1"/>
<stop offset="0.58" stop-color="#4CCFD1"/>
<stop offset="0.61" stop-color="#6BB2BC"/>
<stop offset="0.63" stop-color="#938EA0"/>
<stop offset="0.66" stop-color="#C3617E"/>
<stop offset="0.69" stop-color="#FE2C55"/>
<stop offset="0.72" stop-color="#F83058"/>
<stop offset="0.76" stop-color="#E73E62"/>
<stop offset="0.8" stop-color="#CB5473"/>
<stop offset="0.85" stop-color="#A5738A"/>
<stop offset="0.9" stop-color="#739AA8"/>
<stop offset="0.95" stop-color="#38CACC"/>
<stop offset="1" stop-color="#00F7EF"/>
</linearGradient>
<linearGradient id="paint14_linear_4054_309" x1="12.444" y1="20.8798" x2="31.4373" y2="20.8798" gradientUnits="userSpaceOnUse">
<stop stop-color="#25F4EE"/>
<stop offset="0.08" stop-color="#5EBEC5"/>
<stop offset="0.26" stop-color="#EF395F"/>
<stop offset="0.28" stop-color="#FE2C55"/>
<stop offset="0.51" stop-color="#25F4EE"/>
<stop offset="0.53" stop-color="#29EFEA"/>
<stop offset="0.56" stop-color="#36E3E1"/>
<stop offset="0.58" stop-color="#4CCFD1"/>
<stop offset="0.61" stop-color="#6BB2BC"/>
<stop offset="0.63" stop-color="#938EA0"/>
<stop offset="0.66" stop-color="#C3617E"/>
<stop offset="0.69" stop-color="#FE2C55"/>
<stop offset="0.72" stop-color="#F83058"/>
<stop offset="0.76" stop-color="#E73E62"/>
<stop offset="0.8" stop-color="#CB5473"/>
<stop offset="0.85" stop-color="#A5738A"/>
<stop offset="0.9" stop-color="#739AA8"/>
<stop offset="0.95" stop-color="#38CACC"/>
<stop offset="1" stop-color="#00F7EF"/>
</linearGradient>
<linearGradient id="paint15_linear_4054_309" x1="13.2779" y1="20.9027" x2="30.7031" y2="20.9027" gradientUnits="userSpaceOnUse">
<stop stop-color="#25F4EE"/>
<stop offset="0.08" stop-color="#5EBEC5"/>
<stop offset="0.26" stop-color="#EF395F"/>
<stop offset="0.28" stop-color="#FE2C55"/>
<stop offset="0.51" stop-color="#25F4EE"/>
<stop offset="0.53" stop-color="#29EFEA"/>
<stop offset="0.56" stop-color="#36E3E1"/>
<stop offset="0.58" stop-color="#4CCFD1"/>
<stop offset="0.61" stop-color="#6BB2BC"/>
<stop offset="0.63" stop-color="#938EA0"/>
<stop offset="0.66" stop-color="#C3617E"/>
<stop offset="0.69" stop-color="#FE2C55"/>
<stop offset="0.72" stop-color="#F83058"/>
<stop offset="0.76" stop-color="#E73E62"/>
<stop offset="0.8" stop-color="#CB5473"/>
<stop offset="0.85" stop-color="#A5738A"/>
<stop offset="0.9" stop-color="#739AA8"/>
<stop offset="0.95" stop-color="#38CACC"/>
<stop offset="1" stop-color="#00F7EF"/>
</linearGradient>
<linearGradient id="paint16_linear_4054_309" x1="14.0692" y1="20.9077" x2="29.9488" y2="20.9077" gradientUnits="userSpaceOnUse">
<stop stop-color="#25F4EE"/>
<stop offset="0.08" stop-color="#5EBEC5"/>
<stop offset="0.26" stop-color="#EF395F"/>
<stop offset="0.28" stop-color="#FE2C55"/>
<stop offset="0.36" stop-color="#A87A91"/>
<stop offset="0.43" stop-color="#61BBC3"/>
<stop offset="0.49" stop-color="#35E4E2"/>
<stop offset="0.51" stop-color="#25F4EE"/>
<stop offset="0.53" stop-color="#31E8E5"/>
<stop offset="0.56" stop-color="#53C9CD"/>
<stop offset="0.61" stop-color="#8A96A6"/>
<stop offset="0.67" stop-color="#D55171"/>
<stop offset="0.69" stop-color="#FE2C55"/>
<stop offset="0.72" stop-color="#F83058"/>
<stop offset="0.76" stop-color="#E73E62"/>
<stop offset="0.8" stop-color="#CB5473"/>
<stop offset="0.85" stop-color="#A5738A"/>
<stop offset="0.9" stop-color="#739AA8"/>
<stop offset="0.96" stop-color="#38CACC"/>
<stop offset="1" stop-color="#00F7EF"/>
</linearGradient>
<linearGradient id="paint17_linear_4054_309" x1="13.7252" y1="20.8925" x2="30.2645" y2="20.8925" gradientUnits="userSpaceOnUse">
<stop stop-color="#25F4EE"/>
<stop offset="0.08" stop-color="#5EBEC5"/>
<stop offset="0.26" stop-color="#EF395F"/>
<stop offset="0.28" stop-color="#FE2C55"/>
<stop offset="0.36" stop-color="#A87A91"/>
<stop offset="0.43" stop-color="#61BBC3"/>
<stop offset="0.49" stop-color="#35E4E2"/>
<stop offset="0.51" stop-color="#25F4EE"/>
<stop offset="0.53" stop-color="#31E8E5"/>
<stop offset="0.56" stop-color="#53C9CD"/>
<stop offset="0.61" stop-color="#8A96A6"/>
<stop offset="0.67" stop-color="#D55171"/>
<stop offset="0.69" stop-color="#FE2C55"/>
<stop offset="0.72" stop-color="#F83058"/>
<stop offset="0.76" stop-color="#E73E62"/>
<stop offset="0.8" stop-color="#CB5473"/>
<stop offset="0.85" stop-color="#A5738A"/>
<stop offset="0.9" stop-color="#739AA8"/>
<stop offset="0.96" stop-color="#38CACC"/>
<stop offset="1" stop-color="#00F7EF"/>
</linearGradient>
<linearGradient id="paint18_linear_4054_309" x1="13.3391" y1="20.8809" x2="30.658" y2="20.8809" gradientUnits="userSpaceOnUse">
<stop stop-color="#25F4EE"/>
<stop offset="0.08" stop-color="#5EBEC5"/>
<stop offset="0.26" stop-color="#EF395F"/>
<stop offset="0.28" stop-color="#FE2C55"/>
<stop offset="0.36" stop-color="#A87A91"/>
<stop offset="0.43" stop-color="#61BBC3"/>
<stop offset="0.49" stop-color="#35E4E2"/>
<stop offset="0.51" stop-color="#25F4EE"/>
<stop offset="0.53" stop-color="#31E8E5"/>
<stop offset="0.56" stop-color="#53C9CD"/>
<stop offset="0.61" stop-color="#8A96A6"/>
<stop offset="0.67" stop-color="#D55171"/>
<stop offset="0.69" stop-color="#FE2C55"/>
<stop offset="0.72" stop-color="#F83058"/>
<stop offset="0.76" stop-color="#E73E62"/>
<stop offset="0.8" stop-color="#CB5473"/>
<stop offset="0.85" stop-color="#A5738A"/>
<stop offset="0.9" stop-color="#739AA8"/>
<stop offset="0.96" stop-color="#38CACC"/>
<stop offset="1" stop-color="#00F7EF"/>
</linearGradient>
<linearGradient id="paint19_linear_4054_309" x1="12.7236" y1="20.8772" x2="31.2285" y2="20.8772" gradientUnits="userSpaceOnUse">
<stop stop-color="#25F4EE"/>
<stop offset="0.08" stop-color="#5EBEC5"/>
<stop offset="0.26" stop-color="#EF395F"/>
<stop offset="0.28" stop-color="#FE2C55"/>
<stop offset="0.36" stop-color="#A87A91"/>
<stop offset="0.43" stop-color="#61BBC3"/>
<stop offset="0.49" stop-color="#35E4E2"/>
<stop offset="0.51" stop-color="#25F4EE"/>
<stop offset="0.53" stop-color="#31E8E5"/>
<stop offset="0.56" stop-color="#53C9CD"/>
<stop offset="0.61" stop-color="#8A96A6"/>
<stop offset="0.67" stop-color="#D55171"/>
<stop offset="0.69" stop-color="#FE2C55"/>
<stop offset="0.72" stop-color="#F83058"/>
<stop offset="0.76" stop-color="#E73E62"/>
<stop offset="0.8" stop-color="#CB5473"/>
<stop offset="0.85" stop-color="#A5738A"/>
<stop offset="0.9" stop-color="#739AA8"/>
<stop offset="0.96" stop-color="#38CACC"/>
<stop offset="1" stop-color="#00F7EF"/>
</linearGradient>
<linearGradient id="paint20_linear_4054_309" x1="12.0381" y1="20.8764" x2="31.8663" y2="20.8764" gradientUnits="userSpaceOnUse">
<stop stop-color="#25F4EE"/>
<stop offset="0.08" stop-color="#5EBEC5"/>
<stop offset="0.26" stop-color="#EF395F"/>
<stop offset="0.28" stop-color="#FE2C55"/>
<stop offset="0.36" stop-color="#A87A91"/>
<stop offset="0.43" stop-color="#61BBC3"/>
<stop offset="0.49" stop-color="#35E4E2"/>
<stop offset="0.51" stop-color="#25F4EE"/>
<stop offset="0.53" stop-color="#31E8E5"/>
<stop offset="0.56" stop-color="#53C9CD"/>
<stop offset="0.61" stop-color="#8A96A6"/>
<stop offset="0.67" stop-color="#D55171"/>
<stop offset="0.69" stop-color="#FE2C55"/>
<stop offset="0.72" stop-color="#F83058"/>
<stop offset="0.76" stop-color="#E73E62"/>
<stop offset="0.8" stop-color="#CB5473"/>
<stop offset="0.85" stop-color="#A5738A"/>
<stop offset="0.9" stop-color="#739AA8"/>
<stop offset="0.96" stop-color="#38CACC"/>
<stop offset="1" stop-color="#00F7EF"/>
</linearGradient>
<linearGradient id="paint21_linear_4054_309" x1="11.3319" y1="20.8526" x2="32.5489" y2="20.8526" gradientUnits="userSpaceOnUse">
<stop stop-color="#25F4EE"/>
<stop offset="0.08" stop-color="#5EBEC5"/>
<stop offset="0.26" stop-color="#EF395F"/>
<stop offset="0.28" stop-color="#FE2C55"/>
<stop offset="0.36" stop-color="#A87A91"/>
<stop offset="0.43" stop-color="#61BBC3"/>
<stop offset="0.49" stop-color="#35E4E2"/>
<stop offset="0.51" stop-color="#25F4EE"/>
<stop offset="0.53" stop-color="#31E8E5"/>
<stop offset="0.56" stop-color="#53C9CD"/>
<stop offset="0.61" stop-color="#8A96A6"/>
<stop offset="0.67" stop-color="#D55171"/>
<stop offset="0.69" stop-color="#FE2C55"/>
<stop offset="0.72" stop-color="#F83058"/>
<stop offset="0.76" stop-color="#E73E62"/>
<stop offset="0.8" stop-color="#CB5473"/>
<stop offset="0.85" stop-color="#A5738A"/>
<stop offset="0.9" stop-color="#739AA8"/>
<stop offset="0.96" stop-color="#38CACC"/>
<stop offset="1" stop-color="#00F7EF"/>
</linearGradient>
<linearGradient id="paint22_linear_4054_309" x1="10.6065" y1="20.809" x2="33.247" y2="20.809" gradientUnits="userSpaceOnUse">
<stop stop-color="#25F4EE"/>
<stop offset="0.08" stop-color="#5EBEC5"/>
<stop offset="0.26" stop-color="#EF395F"/>
<stop offset="0.28" stop-color="#FE2C55"/>
<stop offset="0.36" stop-color="#A87A91"/>
<stop offset="0.43" stop-color="#61BBC3"/>
<stop offset="0.49" stop-color="#35E4E2"/>
<stop offset="0.51" stop-color="#25F4EE"/>
<stop offset="0.53" stop-color="#31E8E5"/>
<stop offset="0.56" stop-color="#53C9CD"/>
<stop offset="0.61" stop-color="#8A96A6"/>
<stop offset="0.67" stop-color="#D55171"/>
<stop offset="0.69" stop-color="#FE2C55"/>
<stop offset="0.72" stop-color="#F83058"/>
<stop offset="0.76" stop-color="#E73E62"/>
<stop offset="0.8" stop-color="#CB5473"/>
<stop offset="0.85" stop-color="#A5738A"/>
<stop offset="0.9" stop-color="#739AA8"/>
<stop offset="0.96" stop-color="#38CACC"/>
<stop offset="1" stop-color="#00F7EF"/>
</linearGradient>
<linearGradient id="paint23_linear_4054_309" x1="9.87012" y1="20.7566" x2="33.9546" y2="20.7566" gradientUnits="userSpaceOnUse">
<stop stop-color="#25F4EE"/>
<stop offset="0.08" stop-color="#5EBEC5"/>
<stop offset="0.26" stop-color="#EF395F"/>
<stop offset="0.28" stop-color="#FE2C55"/>
<stop offset="0.36" stop-color="#A87A91"/>
<stop offset="0.43" stop-color="#61BBC3"/>
<stop offset="0.49" stop-color="#35E4E2"/>
<stop offset="0.51" stop-color="#25F4EE"/>
<stop offset="0.53" stop-color="#31E8E5"/>
<stop offset="0.56" stop-color="#53C9CD"/>
<stop offset="0.61" stop-color="#8A96A6"/>
<stop offset="0.67" stop-color="#D55171"/>
<stop offset="0.69" stop-color="#FE2C55"/>
<stop offset="0.72" stop-color="#F83058"/>
<stop offset="0.76" stop-color="#E73E62"/>
<stop offset="0.8" stop-color="#CB5473"/>
<stop offset="0.85" stop-color="#A5738A"/>
<stop offset="0.9" stop-color="#739AA8"/>
<stop offset="0.96" stop-color="#38CACC"/>
<stop offset="1" stop-color="#00F7EF"/>
</linearGradient>
<linearGradient id="paint24_linear_4054_309" x1="9.1359" y1="20.6994" x2="34.6759" y2="20.6994" gradientUnits="userSpaceOnUse">
<stop stop-color="#25F4EE"/>
<stop offset="0.08" stop-color="#5EBEC5"/>
<stop offset="0.26" stop-color="#EF395F"/>
<stop offset="0.28" stop-color="#FE2C55"/>
<stop offset="0.36" stop-color="#A87A91"/>
<stop offset="0.43" stop-color="#61BBC3"/>
<stop offset="0.49" stop-color="#35E4E2"/>
<stop offset="0.51" stop-color="#25F4EE"/>
<stop offset="0.53" stop-color="#31E8E5"/>
<stop offset="0.56" stop-color="#53C9CD"/>
<stop offset="0.61" stop-color="#8A96A6"/>
<stop offset="0.67" stop-color="#D55171"/>
<stop offset="0.69" stop-color="#FE2C55"/>
<stop offset="0.72" stop-color="#F83058"/>
<stop offset="0.76" stop-color="#E73E62"/>
<stop offset="0.8" stop-color="#CB5473"/>
<stop offset="0.85" stop-color="#A5738A"/>
<stop offset="0.9" stop-color="#739AA8"/>
<stop offset="0.96" stop-color="#38CACC"/>
<stop offset="1" stop-color="#00F7EF"/>
</linearGradient>
<linearGradient id="paint25_linear_4054_309" x1="8.39419" y1="20.6377" x2="35.3966" y2="20.6377" gradientUnits="userSpaceOnUse">
<stop stop-color="#25F4EE"/>
<stop offset="0.08" stop-color="#5EBEC5"/>
<stop offset="0.26" stop-color="#EF395F"/>
<stop offset="0.28" stop-color="#FE2C55"/>
<stop offset="0.36" stop-color="#A87A91"/>
<stop offset="0.43" stop-color="#61BBC3"/>
<stop offset="0.49" stop-color="#35E4E2"/>
<stop offset="0.51" stop-color="#25F4EE"/>
<stop offset="0.53" stop-color="#31E8E5"/>
<stop offset="0.56" stop-color="#53C9CD"/>
<stop offset="0.61" stop-color="#8A96A6"/>
<stop offset="0.67" stop-color="#D55171"/>
<stop offset="0.69" stop-color="#FE2C55"/>
<stop offset="0.72" stop-color="#F83058"/>
<stop offset="0.76" stop-color="#E73E62"/>
<stop offset="0.8" stop-color="#CB5473"/>
<stop offset="0.85" stop-color="#A5738A"/>
<stop offset="0.9" stop-color="#739AA8"/>
<stop offset="0.96" stop-color="#38CACC"/>
<stop offset="1" stop-color="#00F7EF"/>
</linearGradient>
<linearGradient id="paint26_linear_4054_309" x1="7.64698" y1="20.5747" x2="36.1165" y2="20.5747" gradientUnits="userSpaceOnUse">
<stop stop-color="#25F4EE"/>
<stop offset="0.08" stop-color="#5EBEC5"/>
<stop offset="0.26" stop-color="#EF395F"/>
<stop offset="0.28" stop-color="#FE2C55"/>
<stop offset="0.36" stop-color="#A87A91"/>
<stop offset="0.43" stop-color="#61BBC3"/>
<stop offset="0.49" stop-color="#35E4E2"/>
<stop offset="0.51" stop-color="#25F4EE"/>
<stop offset="0.53" stop-color="#31E8E5"/>
<stop offset="0.56" stop-color="#53C9CD"/>
<stop offset="0.61" stop-color="#8A96A6"/>
<stop offset="0.67" stop-color="#D55171"/>
<stop offset="0.69" stop-color="#FE2C55"/>
<stop offset="0.72" stop-color="#F83058"/>
<stop offset="0.76" stop-color="#E73E62"/>
<stop offset="0.8" stop-color="#CB5473"/>
<stop offset="0.85" stop-color="#A5738A"/>
<stop offset="0.9" stop-color="#739AA8"/>
<stop offset="0.96" stop-color="#38CACC"/>
<stop offset="1" stop-color="#00F7EF"/>
</linearGradient>
<linearGradient id="paint27_linear_4054_309" x1="6.90077" y1="20.5096" x2="36.8405" y2="20.5096" gradientUnits="userSpaceOnUse">
<stop stop-color="#25F4EE"/>
<stop offset="0.08" stop-color="#5EBEC5"/>
<stop offset="0.26" stop-color="#EF395F"/>
<stop offset="0.28" stop-color="#FE2C55"/>
<stop offset="0.36" stop-color="#A87A91"/>
<stop offset="0.43" stop-color="#61BBC3"/>
<stop offset="0.49" stop-color="#35E4E2"/>
<stop offset="0.51" stop-color="#25F4EE"/>
<stop offset="0.53" stop-color="#31E8E5"/>
<stop offset="0.56" stop-color="#53C9CD"/>
<stop offset="0.61" stop-color="#8A96A6"/>
<stop offset="0.67" stop-color="#D55171"/>
<stop offset="0.69" stop-color="#FE2C55"/>
<stop offset="0.72" stop-color="#F83058"/>
<stop offset="0.76" stop-color="#E73E62"/>
<stop offset="0.8" stop-color="#CB5473"/>
<stop offset="0.85" stop-color="#A5738A"/>
<stop offset="0.9" stop-color="#739AA8"/>
<stop offset="0.96" stop-color="#38CACC"/>
<stop offset="1" stop-color="#00F7EF"/>
</linearGradient>
<linearGradient id="paint28_linear_4054_309" x1="6.1502" y1="20.4453" x2="37.5626" y2="20.4453" gradientUnits="userSpaceOnUse">
<stop stop-color="#25F4EE"/>
<stop offset="0.08" stop-color="#5EBEC5"/>
<stop offset="0.26" stop-color="#EF395F"/>
<stop offset="0.28" stop-color="#FE2C55"/>
<stop offset="0.36" stop-color="#A87A91"/>
<stop offset="0.43" stop-color="#61BBC3"/>
<stop offset="0.49" stop-color="#35E4E2"/>
<stop offset="0.51" stop-color="#25F4EE"/>
<stop offset="0.53" stop-color="#31E8E5"/>
<stop offset="0.56" stop-color="#53C9CD"/>
<stop offset="0.61" stop-color="#8A96A6"/>
<stop offset="0.67" stop-color="#D55171"/>
<stop offset="0.69" stop-color="#FE2C55"/>
<stop offset="0.72" stop-color="#F83058"/>
<stop offset="0.76" stop-color="#E73E62"/>
<stop offset="0.8" stop-color="#CB5473"/>
<stop offset="0.85" stop-color="#A5738A"/>
<stop offset="0.9" stop-color="#739AA8"/>
<stop offset="0.96" stop-color="#38CACC"/>
<stop offset="1" stop-color="#00F7EF"/>
</linearGradient>
<linearGradient id="paint29_linear_4054_309" x1="5.40342" y1="20.3798" x2="38.2911" y2="20.3798" gradientUnits="userSpaceOnUse">
<stop stop-color="#25F4EE"/>
<stop offset="0.08" stop-color="#5EBEC5"/>
<stop offset="0.26" stop-color="#EF395F"/>
<stop offset="0.28" stop-color="#FE2C55"/>
<stop offset="0.36" stop-color="#A87A91"/>
<stop offset="0.43" stop-color="#61BBC3"/>
<stop offset="0.49" stop-color="#35E4E2"/>
<stop offset="0.51" stop-color="#25F4EE"/>
<stop offset="0.53" stop-color="#31E8E5"/>
<stop offset="0.56" stop-color="#53C9CD"/>
<stop offset="0.61" stop-color="#8A96A6"/>
<stop offset="0.67" stop-color="#D55171"/>
<stop offset="0.69" stop-color="#FE2C55"/>
<stop offset="0.72" stop-color="#F83058"/>
<stop offset="0.76" stop-color="#E73E62"/>
<stop offset="0.8" stop-color="#CB5473"/>
<stop offset="0.85" stop-color="#A5738A"/>
<stop offset="0.9" stop-color="#739AA8"/>
<stop offset="0.96" stop-color="#38CACC"/>
<stop offset="1" stop-color="#00F7EF"/>
</linearGradient>
<linearGradient id="paint30_linear_4054_309" x1="4.65455" y1="20.3126" x2="39.018" y2="20.3126" gradientUnits="userSpaceOnUse">
<stop stop-color="#25F4EE"/>
<stop offset="0.08" stop-color="#5EBEC5"/>
<stop offset="0.26" stop-color="#EF395F"/>
<stop offset="0.28" stop-color="#FE2C55"/>
<stop offset="0.36" stop-color="#A87A91"/>
<stop offset="0.43" stop-color="#61BBC3"/>
<stop offset="0.49" stop-color="#35E4E2"/>
<stop offset="0.51" stop-color="#25F4EE"/>
<stop offset="0.53" stop-color="#31E8E5"/>
<stop offset="0.56" stop-color="#53C9CD"/>
<stop offset="0.61" stop-color="#8A96A6"/>
<stop offset="0.67" stop-color="#D55171"/>
<stop offset="0.69" stop-color="#FE2C55"/>
<stop offset="0.72" stop-color="#F83058"/>
<stop offset="0.76" stop-color="#E73E62"/>
<stop offset="0.8" stop-color="#CB5473"/>
<stop offset="0.85" stop-color="#A5738A"/>
<stop offset="0.9" stop-color="#739AA8"/>
<stop offset="0.96" stop-color="#38CACC"/>
<stop offset="1" stop-color="#00F7EF"/>
</linearGradient>
<linearGradient id="paint31_linear_4054_309" x1="3.90938" y1="20.246" x2="39.7498" y2="20.246" gradientUnits="userSpaceOnUse">
<stop stop-color="#25F4EE"/>
<stop offset="0.08" stop-color="#5EBEC5"/>
<stop offset="0.26" stop-color="#EF395F"/>
<stop offset="0.28" stop-color="#FE2C55"/>
<stop offset="0.36" stop-color="#A87A91"/>
<stop offset="0.43" stop-color="#61BBC3"/>
<stop offset="0.49" stop-color="#35E4E2"/>
<stop offset="0.51" stop-color="#25F4EE"/>
<stop offset="0.53" stop-color="#31E8E5"/>
<stop offset="0.56" stop-color="#53C9CD"/>
<stop offset="0.61" stop-color="#8A96A6"/>
<stop offset="0.67" stop-color="#D55171"/>
<stop offset="0.69" stop-color="#FE2C55"/>
<stop offset="0.72" stop-color="#F83058"/>
<stop offset="0.76" stop-color="#E73E62"/>
<stop offset="0.8" stop-color="#CB5473"/>
<stop offset="0.85" stop-color="#A5738A"/>
<stop offset="0.9" stop-color="#739AA8"/>
<stop offset="0.96" stop-color="#38CACC"/>
<stop offset="1" stop-color="#00F7EF"/>
</linearGradient>
<linearGradient id="paint32_linear_4054_309" x1="3.15585" y1="20.1799" x2="40.4742" y2="20.1799" gradientUnits="userSpaceOnUse">
<stop stop-color="#25F4EE"/>
<stop offset="0.08" stop-color="#5EBEC5"/>
<stop offset="0.26" stop-color="#EF395F"/>
<stop offset="0.28" stop-color="#FE2C55"/>
<stop offset="0.36" stop-color="#A87A91"/>
<stop offset="0.43" stop-color="#61BBC3"/>
<stop offset="0.49" stop-color="#35E4E2"/>
<stop offset="0.51" stop-color="#25F4EE"/>
<stop offset="0.53" stop-color="#31E8E5"/>
<stop offset="0.56" stop-color="#53C9CD"/>
<stop offset="0.61" stop-color="#8A96A6"/>
<stop offset="0.67" stop-color="#D55171"/>
<stop offset="0.69" stop-color="#FE2C55"/>
<stop offset="0.72" stop-color="#F83058"/>
<stop offset="0.76" stop-color="#E73E62"/>
<stop offset="0.8" stop-color="#CB5473"/>
<stop offset="0.85" stop-color="#A5738A"/>
<stop offset="0.9" stop-color="#739AA8"/>
<stop offset="0.96" stop-color="#38CACC"/>
<stop offset="1" stop-color="#00F7EF"/>
</linearGradient>
</defs>
</svg>
